<svg width="320" height="32" viewBox="0 0 320 32" fill="none" xmlns="http://www.w3.org/2000/svg">
<path d="M277.14 28.1786C273.856 27.3171 273.192 24.8932 273.393 22.2123H278.139C278.139 24.0629 278.233 25.616 280.842 25.616C282.445 25.616 283.23 24.7326 283.23 23.4183C283.23 19.9326 273.677 19.7178 273.677 13.9594C273.677 10.9304 275.373 8.51758 281.157 8.51758C285.775 8.51758 288.07 10.2866 287.756 14.3323H283.136C283.136 12.8844 282.854 11.4135 280.936 11.4135C279.398 11.4135 278.485 12.1364 278.485 13.4745C278.485 17.1483 288.04 16.8259 288.04 22.9105C288.04 26.2628 286.114 27.6358 283.757 28.1787H277.14V28.1786Z" fill="#38466E"/>
<path d="M299.592 14.7839C299.625 12.9874 299.278 11.4086 296.763 11.4086C293.81 11.4086 293.81 14.8115 293.81 18.5633C293.81 24.6183 294.503 25.6921 297.204 25.6921C297.99 25.6921 298.839 25.5304 299.56 25.3156V21.0283H296.985V18.0545H304.306V27.8633C303.804 27.9469 303.008 28.0636 302.11 28.1738H293.989C289.592 27.2379 289.001 24.2621 289.001 18.3503C289.001 13.4696 289.286 8.5127 297.046 8.5127C301.698 8.5127 304.59 10.7372 304.306 14.7839H299.592Z" fill="#38466E"/>
<path d="M313.274 8.51273C317.421 8.50452 319.685 9.8913 320 13.004V14.3275H315.38C315.384 12.9167 314.969 11.4087 313.053 11.4087C311.512 11.4087 310.6 12.1316 310.6 13.4696C310.6 16.8652 318.764 16.8469 320 21.6298V24.4321C319.497 26.6961 317.833 27.7228 315.872 28.1739H309.256C305.972 27.3125 305.308 24.8885 305.51 22.2067H310.255C310.255 24.0583 310.35 25.6114 312.959 25.6114C314.56 25.6114 315.346 24.7279 315.346 23.4136C315.346 19.928 305.791 19.7131 305.791 13.9548C305.791 10.9255 307.488 8.52335 313.274 8.51273Z" fill="#38466E"/>
<path d="M253.201 10.7358C254.352 10.7358 255.246 11.142 255.886 11.9544C256.53 12.7669 256.853 13.9071 256.853 15.3749C256.853 16.8481 256.527 17.9964 255.877 18.8197C255.227 19.6376 254.324 20.0465 253.168 20.0465C252.001 20.0465 251.095 19.6376 250.45 18.8197H250.317L249.958 19.884H248.491V7.24219H250.45V10.2483C250.45 10.4704 250.439 10.8008 250.417 11.2395C250.394 11.6782 250.378 11.9572 250.367 12.0763H250.45C251.073 11.1826 251.99 10.7358 253.201 10.7358ZM252.693 12.2957C251.903 12.2957 251.334 12.5232 250.984 12.9781C250.639 13.4277 250.461 14.1833 250.45 15.2449V15.3749C250.45 16.469 250.628 17.2625 250.984 17.7554C251.339 18.2429 251.92 18.4866 252.726 18.4866C253.421 18.4866 253.946 18.2185 254.302 17.6823C254.663 17.1461 254.843 16.3715 254.843 15.3586C254.843 13.3167 254.127 12.2957 252.693 12.2957Z" fill="#38466E"/>
<path d="M257.728 10.8982H259.862L261.738 15.9924C262.021 16.7182 262.21 17.4006 262.305 18.0398H262.371C262.421 17.7419 262.513 17.3817 262.647 16.9592C262.78 16.5313 263.486 14.511 264.764 10.8982H266.882L262.938 21.0783C262.221 22.947 261.026 23.8813 259.354 23.8813C258.92 23.8813 258.498 23.8353 258.086 23.7432V22.232C258.381 22.297 258.717 22.3295 259.095 22.3295C260.04 22.3295 260.704 21.796 261.088 20.729L261.429 19.884L257.728 10.8982Z" fill="#38466E"/>
<path d="M160.343 10.0815C159.518 9.19313 158.715 8.6009 157.932 8.30478C157.171 8.00867 156.399 7.86061 155.616 7.86061C154.453 7.86061 153.395 8.07212 152.443 8.49514C151.513 8.89701 150.709 9.46809 150.032 10.2084C149.355 10.9275 148.827 11.7736 148.446 12.7465C148.086 13.7194 147.907 14.7664 147.907 15.8874C147.907 17.093 148.086 18.2035 148.446 19.2187C148.827 20.234 149.355 21.1117 150.032 21.852C150.709 22.5923 151.513 23.174 152.443 23.597C153.395 24.02 154.453 24.2315 155.616 24.2315C156.526 24.2315 157.403 24.02 158.249 23.597C159.117 23.1528 159.92 22.4548 160.661 21.503L163.96 23.8508C162.945 25.2467 161.708 26.262 160.248 26.8965C158.789 27.5311 157.234 27.8483 155.584 27.8483C153.85 27.8483 152.253 27.5734 150.794 27.0234C149.355 26.4524 148.107 25.6592 147.05 24.6439C146.014 23.6075 145.199 22.3702 144.607 20.9319C144.015 19.4937 143.719 17.8968 143.719 16.1412C143.719 14.3434 144.015 12.7148 144.607 11.2554C145.199 9.77478 146.014 8.51629 147.05 7.47989C148.107 6.44349 149.355 5.65033 150.794 5.1004C152.253 4.52933 153.85 4.24379 155.584 4.24379C157.107 4.24379 158.514 4.51875 159.804 5.06868C161.115 5.59745 162.332 6.50695 163.453 7.79716L160.343 10.0815Z" fill="#FF7761"/>
<path d="M170.101 14.1742H170.165C170.461 13.5397 170.979 12.9686 171.72 12.461C172.481 11.9322 173.454 11.6678 174.638 11.6678C175.654 11.6678 176.51 11.837 177.208 12.1754C177.927 12.5138 178.509 12.958 178.953 13.5079C179.397 14.0579 179.715 14.6924 179.905 15.4115C180.095 16.1307 180.191 16.8815 180.191 17.6641V27.2772H176.383V19.5677C176.383 19.1447 176.362 18.6794 176.32 18.1717C176.278 17.643 176.161 17.1565 175.971 16.7123C175.802 16.247 175.527 15.8663 175.146 15.5702C174.765 15.2529 174.247 15.0943 173.591 15.0943C172.957 15.0943 172.418 15.2 171.973 15.4115C171.55 15.623 171.191 15.9086 170.895 16.2681C170.62 16.6277 170.419 17.0402 170.292 17.5055C170.165 17.9708 170.101 18.4573 170.101 18.9649V27.2772H166.294V3.29199H170.101V14.1742Z" fill="#FF7761"/>
<path d="M194.03 25.1833H193.935C193.385 26.0505 192.687 26.685 191.841 27.0869C190.995 27.4676 190.064 27.658 189.049 27.658C188.351 27.658 187.664 27.5628 186.987 27.3724C186.331 27.1821 185.739 26.8965 185.21 26.5158C184.703 26.1351 184.29 25.6592 183.973 25.0881C183.656 24.517 183.497 23.8508 183.497 23.0893C183.497 22.2645 183.645 21.5665 183.941 20.9954C184.237 20.4032 184.629 19.9167 185.115 19.536C185.623 19.1341 186.204 18.8168 186.86 18.5842C187.516 18.3515 188.193 18.1823 188.891 18.0766C189.61 17.9496 190.329 17.8756 191.048 17.8545C191.767 17.8122 192.444 17.791 193.078 17.791H194.03V17.3786C194.03 16.4268 193.702 15.7182 193.047 15.2529C192.391 14.7664 191.556 14.5232 190.54 14.5232C189.737 14.5232 188.986 14.6712 188.288 14.9674C187.59 15.2423 186.987 15.623 186.479 16.1095L184.481 14.1107C185.327 13.2435 186.31 12.6196 187.431 12.2389C188.573 11.8582 189.747 11.6678 190.953 11.6678C192.031 11.6678 192.941 11.7947 193.681 12.0485C194.422 12.2812 195.035 12.5879 195.521 12.9686C196.008 13.3493 196.378 13.7935 196.632 14.3011C196.907 14.7876 197.097 15.2846 197.203 15.7922C197.33 16.2999 197.404 16.7969 197.425 17.2834C197.446 17.7487 197.457 18.1612 197.457 18.5207V27.2772H194.03V25.1833ZM193.808 20.456H193.015C192.486 20.456 191.894 20.4772 191.238 20.5195C190.583 20.5618 189.959 20.6676 189.366 20.8368C188.795 20.9848 188.309 21.2175 187.907 21.5347C187.505 21.8309 187.304 22.2539 187.304 22.8038C187.304 23.1634 187.378 23.4701 187.526 23.7239C187.696 23.9565 187.907 24.1575 188.161 24.3267C188.415 24.4959 188.7 24.6228 189.017 24.7074C189.335 24.7709 189.652 24.8026 189.969 24.8026C191.281 24.8026 192.243 24.4959 192.856 23.8825C193.491 23.248 193.808 22.3914 193.808 21.3127V20.456Z" fill="#FF7761"/>
<path d="M201.616 12.0485H205.424V27.2772H201.616V12.0485ZM201.077 6.87709C201.077 6.26371 201.299 5.73493 201.743 5.29076C202.209 4.82544 202.79 4.59278 203.488 4.59278C204.186 4.59278 204.768 4.81487 205.233 5.25904C205.72 5.68206 205.963 6.22141 205.963 6.87709C205.963 7.53277 205.72 8.0827 205.233 8.52687C204.768 8.94989 204.186 9.1614 203.488 9.1614C202.79 9.1614 202.209 8.93931 201.743 8.49514C201.299 8.02982 201.077 7.49047 201.077 6.87709Z" fill="#FF7761"/>
<path d="M209.794 12.0485H213.411V14.4915H213.475C213.834 13.73 214.384 13.0743 215.124 12.5244C215.865 11.9533 216.869 11.6678 218.138 11.6678C219.154 11.6678 220.01 11.837 220.708 12.1754C221.427 12.5138 222.009 12.958 222.453 13.5079C222.897 14.0579 223.215 14.6924 223.405 15.4115C223.595 16.1307 223.691 16.8815 223.691 17.6641V27.2772H219.883V19.5677C219.883 19.1447 219.862 18.6794 219.82 18.1717C219.778 17.643 219.661 17.1565 219.471 16.7123C219.302 16.247 219.027 15.8663 218.646 15.5702C218.265 15.2529 217.747 15.0943 217.091 15.0943C216.457 15.0943 215.918 15.2 215.473 15.4115C215.05 15.623 214.691 15.9086 214.395 16.2681C214.12 16.6277 213.919 17.0402 213.792 17.5055C213.665 17.9708 213.602 18.4573 213.602 18.9649V27.2772H209.794V12.0485Z" fill="#FF7761"/>
<path d="M66.1085 9.68941C65.6854 9.07603 65.1144 8.63186 64.3952 8.35689C63.6972 8.06078 62.957 7.91272 62.1744 7.91272C61.709 7.91272 61.2543 7.9656 60.8101 8.07135C60.3871 8.17711 59.9958 8.34632 59.6362 8.57898C59.2978 8.81164 59.0229 9.11833 58.8114 9.49905C58.5998 9.85862 58.4941 10.2922 58.4941 10.7998C58.4941 11.5613 58.7585 12.1429 59.2873 12.5448C59.816 12.9467 60.4717 13.2957 61.2543 13.5918C62.0369 13.8879 62.8935 14.1734 63.8241 14.4484C64.7548 14.7234 65.6114 15.1041 66.394 15.5905C67.1766 16.077 67.8323 16.7221 68.361 17.5259C68.8898 18.3296 69.1542 19.3977 69.1542 20.7302C69.1542 21.9358 68.9321 22.9934 68.4879 23.9029C68.0438 24.7912 67.441 25.5315 66.6795 26.1238C65.9392 26.716 65.0721 27.1601 64.078 27.4563C63.0839 27.7524 62.0369 27.9004 60.937 27.9004C59.5411 27.9004 58.198 27.6678 56.9078 27.2025C55.6176 26.7371 54.5071 25.9545 53.5765 24.8547L56.5905 21.9358C57.077 22.6761 57.7115 23.2578 58.4941 23.6808C59.2978 24.0827 60.1439 24.2836 61.0322 24.2836C61.4975 24.2836 61.9629 24.2202 62.4282 24.0933C62.8935 23.9663 63.3165 23.776 63.6972 23.5222C64.078 23.2684 64.3846 22.9511 64.6173 22.5704C64.85 22.1685 64.9663 21.7138 64.9663 21.2061C64.9663 20.3813 64.7019 19.7467 64.1731 19.3025C63.6444 18.8584 62.9887 18.4882 62.2061 18.1921C61.4235 17.8749 60.5669 17.5787 59.6362 17.3038C58.7056 17.0288 57.849 16.6587 57.0664 16.1933C56.2838 15.7069 55.6281 15.0723 55.0994 14.2898C54.5706 13.486 54.3062 12.4179 54.3062 11.0854C54.3062 9.92207 54.5388 8.9174 55.0042 8.07135C55.4906 7.22531 56.1146 6.52733 56.876 5.9774C57.6586 5.40633 58.547 4.98331 59.5411 4.70834C60.5352 4.43338 61.5504 4.2959 62.5868 4.2959C63.7713 4.2959 64.9134 4.47568 66.0133 4.83525C67.1343 5.19482 68.139 5.78704 69.0273 6.61193L66.1085 9.68941Z" fill="#3C515B"/>
<path d="M72.8097 12.1006H76.4265V14.4801H76.49C76.8284 13.761 77.3677 13.1264 78.108 12.5765C78.8695 12.0054 79.8847 11.7199 81.1538 11.7199C83.5438 11.7199 85.1302 12.6611 85.9127 14.5436C86.4627 13.5706 87.1501 12.8621 87.975 12.4179C88.7999 11.9526 89.7834 11.7199 90.9255 11.7199C91.9408 11.7199 92.7974 11.8891 93.4954 12.2275C94.1934 12.5659 94.7539 13.0313 95.1769 13.6235C95.6211 14.2157 95.9383 14.9137 96.1287 15.7174C96.319 16.5 96.4142 17.3461 96.4142 18.2556V27.3294H92.607V18.6997C92.607 18.2344 92.5647 17.7902 92.4801 17.3672C92.3955 16.9231 92.2475 16.5423 92.036 16.2251C91.8245 15.8867 91.5389 15.6223 91.1793 15.4319C90.8198 15.2416 90.3545 15.1464 89.7834 15.1464C89.1912 15.1464 88.6835 15.2627 88.2605 15.4954C87.8586 15.7069 87.5202 16.003 87.2453 16.3837C86.9915 16.7433 86.8011 17.1663 86.6742 17.6528C86.5684 18.1181 86.5156 18.594 86.5156 19.0805V27.3294H82.7084V18.2556C82.7084 17.3038 82.5074 16.5529 82.1056 16.003C81.7037 15.4319 81.0374 15.1464 80.1068 15.1464C79.4723 15.1464 78.9329 15.2521 78.4887 15.4636C78.0657 15.6751 77.7062 15.9607 77.41 16.3203C77.1351 16.6798 76.9341 17.0923 76.8072 17.5576C76.6803 18.0229 76.6169 18.5094 76.6169 19.017V27.3294H72.8097V12.1006Z" fill="#3C515B"/>
<path d="M110.092 25.2354H109.997C109.447 26.1026 108.749 26.7371 107.903 27.139C107.057 27.5197 106.126 27.7101 105.111 27.7101C104.413 27.7101 103.726 27.6149 103.049 27.4245C102.393 27.2342 101.801 26.9486 101.272 26.5679C100.764 26.1872 100.352 25.7113 100.035 25.1402C99.7175 24.5692 99.5589 23.9029 99.5589 23.1415C99.5589 22.3166 99.7069 21.6186 100.003 21.0475C100.299 20.4553 100.69 19.9688 101.177 19.5881C101.685 19.1862 102.266 18.869 102.922 18.6363C103.578 18.4036 104.254 18.2344 104.952 18.1287C105.672 18.0018 106.391 17.9277 107.11 17.9066C107.829 17.8643 108.506 17.8431 109.14 17.8431H110.092V17.4307C110.092 16.4789 109.764 15.7703 109.109 15.305C108.453 14.8185 107.617 14.5753 106.602 14.5753C105.798 14.5753 105.048 14.7234 104.35 15.0195C103.652 15.2944 103.049 15.6751 102.541 16.1616L100.542 14.1628C101.388 13.2957 102.372 12.6717 103.493 12.291C104.635 11.9103 105.809 11.7199 107.015 11.7199C108.093 11.7199 109.003 11.8468 109.743 12.1006C110.483 12.3333 111.097 12.64 111.583 13.0207C112.07 13.4014 112.44 13.8456 112.694 14.3532C112.969 14.8397 113.159 15.3367 113.265 15.8444C113.392 16.352 113.466 16.849 113.487 17.3355C113.508 17.8008 113.519 18.2133 113.519 18.5728V27.3294H110.092V25.2354ZM109.87 20.5082H109.077C108.548 20.5082 107.956 20.5293 107.3 20.5716C106.644 20.6139 106.021 20.7197 105.428 20.8889C104.857 21.0369 104.371 21.2696 103.969 21.5869C103.567 21.883 103.366 22.306 103.366 22.8559C103.366 23.2155 103.44 23.5222 103.588 23.776C103.757 24.0086 103.969 24.2096 104.223 24.3788C104.476 24.548 104.762 24.6749 105.079 24.7595C105.397 24.823 105.714 24.8547 106.031 24.8547C107.342 24.8547 108.305 24.548 108.918 23.9346C109.553 23.3001 109.87 22.4435 109.87 21.3648V20.5082Z" fill="#3C515B"/>
<path d="M117.615 12.1006H121.422V14.5118H121.485C121.908 13.6235 122.511 12.9361 123.294 12.4496C124.076 11.9631 124.975 11.7199 125.991 11.7199C126.223 11.7199 126.445 11.7411 126.657 11.7834C126.889 11.8257 127.122 11.8785 127.355 11.942V15.6223C127.038 15.5377 126.72 15.4742 126.403 15.4319C126.107 15.3685 125.811 15.3367 125.515 15.3367C124.626 15.3367 123.907 15.5059 123.357 15.8444C122.828 16.1616 122.416 16.5318 122.12 16.9548C121.845 17.3778 121.655 17.8008 121.549 18.2238C121.464 18.6469 121.422 18.9641 121.422 19.1756V27.3294H117.615V12.1006Z" fill="#3C515B"/>
<path d="M128.169 15.3367V12.1006H131.31V7.69064H135.117V12.1006H139.305V15.3367H135.117V21.9993C135.117 22.7607 135.255 23.3635 135.53 23.8077C135.826 24.2519 136.397 24.474 137.243 24.474C137.581 24.474 137.952 24.4422 138.353 24.3788C138.755 24.2942 139.073 24.1673 139.305 23.9981V27.2025C138.903 27.3928 138.406 27.5197 137.814 27.5832C137.243 27.6678 136.735 27.7101 136.291 27.7101C135.276 27.7101 134.441 27.5937 133.785 27.3611C133.15 27.1496 132.643 26.8217 132.262 26.3776C131.902 25.9122 131.649 25.3412 131.501 24.6643C131.374 23.9875 131.31 23.2049 131.31 22.3166V15.3367H128.169Z" fill="#3C515B"/>
<path d="M11.2162 2.40723C12.9185 2.4081 14.5954 2.76516 16.1046 3.44809C17.6138 4.13102 18.9106 5.11966 19.885 6.33005C20.1259 6.62997 20.2196 7.00056 20.1456 7.36038C20.0715 7.7202 19.8358 8.03981 19.4901 8.24895C19.3187 8.35275 19.1255 8.42624 18.9213 8.46521C18.7172 8.50418 18.5062 8.50787 18.3005 8.47607C18.0947 8.44427 17.8981 8.37759 17.7221 8.27987C17.5461 8.18214 17.394 8.05528 17.2745 7.90654C16.5942 7.05993 15.6881 6.36835 14.6333 5.89061C13.5785 5.41288 12.4062 5.16314 11.2162 5.16263C9.25914 5.16446 7.38277 5.83927 5.99864 7.03907C4.61452 8.23887 3.83564 9.86571 3.83283 11.5628C3.83494 13.2603 4.61351 14.8877 5.9977 16.088C7.3819 17.2883 9.25868 17.9634 11.2162 17.9652C12.4036 17.9633 13.5729 17.7135 14.6255 17.2372C15.6782 16.7608 16.5831 16.0717 17.2639 15.2282L17.4733 14.9617L17.529 14.9134L21.3823 10.0254L24.2684 6.34844V6.33005C25.2428 5.11966 26.5396 4.13102 28.0487 3.44809C29.5579 2.76516 31.2348 2.4081 32.9371 2.40723C35.7374 2.40966 38.4223 3.37521 40.4027 5.09205C42.3831 6.80889 43.4972 9.13681 43.5007 11.5651C43.4979 13.9938 42.3841 16.3223 40.4036 18.0396C38.4232 19.7569 35.7379 20.7228 32.9371 20.7252C31.2361 20.7245 29.5604 20.368 28.0522 19.6859C26.544 19.0038 25.2478 18.0162 24.2737 16.807C24.0325 16.5074 23.9383 16.137 24.0119 15.7772C24.0854 15.4174 24.3206 15.0976 24.6659 14.8881C24.8371 14.7842 25.0302 14.7106 25.2343 14.6714C25.4383 14.6323 25.6492 14.6284 25.855 14.66C26.0607 14.6916 26.2573 14.758 26.4334 14.8555C26.6096 14.953 26.7618 15.0797 26.8814 15.2282C27.5628 16.0731 28.4689 16.7632 29.523 17.24C30.5771 17.7169 31.7482 17.9664 32.9371 17.9675C34.8947 17.9657 36.7714 17.2906 38.1556 16.0903C39.5398 14.89 40.3184 13.2626 40.3205 11.5651C40.3177 9.86801 39.5388 8.24117 38.1547 7.04137C36.7706 5.84157 34.8942 5.16675 32.9371 5.16493C31.7564 5.16545 30.5931 5.41132 29.5446 5.88193C28.496 6.35254 27.5928 7.03419 26.9106 7.86977L26.8894 7.89735L23.9742 11.5996L19.8823 16.7955C18.9079 18.0044 17.6116 18.9918 16.1035 19.6739C14.5954 20.356 12.9198 20.7127 11.2189 20.7137C8.4181 20.7113 5.73283 19.7455 3.75238 18.0281C1.77192 16.3108 0.658073 13.9823 0.655266 11.5536C0.662273 9.12771 1.77762 6.80308 3.75705 5.08879C5.73647 3.3745 8.41866 2.41026 11.2162 2.40723Z" fill="url(#paint0_linear_1596_4420)"/>
<path d="M29.5791 3.70987C29.5791 5.63096 31.1364 7.1883 33.0575 7.1883C34.9786 7.1883 36.5359 5.63096 36.5359 3.70987C36.5359 1.78879 34.9786 0.231445 33.0575 0.231445C31.1364 0.231445 29.5791 1.78879 29.5791 3.70987Z" fill="#03BA96"/>
<path d="M7.89767 3.70987C7.89767 5.63096 9.45501 7.1883 11.3761 7.1883C13.2972 7.1883 14.8545 5.63096 14.8545 3.70987C14.8545 1.78879 13.2972 0.231445 11.3761 0.231445C9.45501 0.231445 7.89767 1.78879 7.89767 3.70987Z" fill="#FF7761"/>
<path fill-rule="evenodd" clip-rule="evenodd" d="M236.644 31.7507L236.644 0.234375L237.643 0.234375L237.643 31.7507L236.644 31.7507Z" fill="#38466E"/>
<defs>
<linearGradient id="paint0_linear_1596_4420" x1="8.99132" y1="9.45149" x2="36.9874" y2="9.45149" gradientUnits="userSpaceOnUse">
<stop stop-color="#FF7761"/>
<stop offset="0.254082" stop-color="#C2612D"/>
<stop offset="0.619458" stop-color="#3C515B"/>
<stop offset="1" stop-color="#03BA96"/>
</linearGradient>
</defs>
</svg>
