<svg width="97" height="57" viewBox="0 0 97 57" fill="none" xmlns="http://www.w3.org/2000/svg">
<path d="M93.9416 45.5781H93.7524V56.7399H93.9416V45.5781Z" fill="#FF6600"/>
<path d="M96.9999 54.9609H72.6602V55.1477H96.9999V54.9609Z" fill="#FF6600"/>
<path d="M78.8887 54.9569C77.7501 54.6134 77.5198 53.6469 77.5895 52.5779H79.2352C79.2352 53.3158 79.2678 53.9351 80.1726 53.9351C80.7284 53.9351 81.0007 53.5828 81.0007 53.0588C81.0007 51.6689 77.6879 51.5832 77.6879 49.2871C77.6879 48.0793 78.2761 47.1172 80.2818 47.1172C81.8834 47.1172 82.6794 47.8226 82.5706 49.4358H80.9681C80.9681 48.8584 80.8705 48.2719 80.2052 48.2719C79.6719 48.2719 79.3551 48.5602 79.3551 49.0937C79.3551 50.5586 82.6689 50.4301 82.6689 52.8563C82.6689 54.193 82.0011 54.7405 81.1835 54.9569H78.8887V54.9569Z" fill="#3C515B"/>
<path d="M86.6755 49.6178C86.6869 48.9015 86.5665 48.2719 85.6944 48.2719C84.6703 48.2719 84.6703 49.6288 84.6703 51.1248C84.6703 53.5392 84.9105 53.9674 85.8474 53.9674C86.1198 53.9674 86.4145 53.9029 86.6645 53.8173V52.1077H85.7714V50.9219H88.3102V54.8332C88.1361 54.8665 87.86 54.913 87.5486 54.9569H84.7324C83.2076 54.5838 83.0024 53.3972 83.0024 51.0399C83.0024 49.0937 83.1012 47.1172 85.7926 47.1172C87.4057 47.1172 88.4086 48.0042 88.3102 49.6178H86.6755Z" fill="#3C515B"/>
<path d="M91.4198 47.1172C92.8579 47.1139 93.643 47.6669 93.7524 48.9081V49.4358H92.1501C92.1513 48.8733 92.0077 48.2719 91.343 48.2719C90.8088 48.2719 90.4922 48.5602 90.4922 49.0937C90.4922 50.4477 93.3236 50.4404 93.7524 52.3476V53.465C93.5778 54.3677 93.0008 54.7771 92.3209 54.957H90.0264C88.8875 54.6135 88.6572 53.647 88.7273 52.5776H90.3726C90.3726 53.3159 90.4058 53.9352 91.3106 53.9352C91.8657 53.9352 92.1383 53.5829 92.1383 53.0589C92.1383 51.669 88.8247 51.5833 88.8247 49.2872C88.8247 48.0793 89.4131 47.1214 91.4198 47.1172Z" fill="#3C515B"/>
<path d="M62.6754 49.1934C63.1361 49.1934 63.4945 49.3604 63.7504 49.6942C64.0086 50.0281 64.1377 50.4966 64.1377 51.0998C64.1377 51.7052 64.0075 52.1771 63.7471 52.5154C63.4867 52.8515 63.125 53.0195 62.662 53.0195C62.1946 53.0195 61.8318 52.8515 61.5736 52.5154H61.5202L61.3767 52.9527H60.7891V47.7578H61.5736V48.9931C61.5736 49.0844 61.5692 49.2201 61.5603 49.4004C61.5514 49.5807 61.5447 49.6953 61.5403 49.7443H61.5736C61.8229 49.3771 62.1902 49.1934 62.6754 49.1934ZM62.4717 49.8345C62.1557 49.8345 61.9275 49.9279 61.7873 50.1149C61.6493 50.2996 61.5781 50.6101 61.5736 51.0464V51.0998C61.5736 51.5494 61.6449 51.8755 61.7873 52.078C61.9298 52.2783 62.1624 52.3785 62.4851 52.3785C62.7633 52.3785 62.9737 52.2683 63.1161 52.048C63.2608 51.8276 63.3331 51.5093 63.3331 51.0931C63.3331 50.254 63.046 49.8345 62.4717 49.8345Z" fill="#3C515B"/>
<path d="M64.4883 49.2602H65.343L66.0942 51.3535C66.2077 51.6518 66.2834 51.9322 66.3212 52.1949H66.3479C66.3679 52.0725 66.4047 51.9244 66.4581 51.7508C66.5115 51.575 66.7942 50.7448 67.3061 49.2602H68.1541L66.5749 53.4435C66.2878 54.2114 65.8093 54.5954 65.1393 54.5954C64.9657 54.5954 64.7966 54.5764 64.6318 54.5386V53.9176C64.7498 53.9443 64.8845 53.9577 65.0358 53.9577C65.4142 53.9577 65.6802 53.7384 65.8338 53.3L65.9706 52.9527L64.4883 49.2602Z" fill="#3C515B"/>
<path d="M60.7932 32.3737C60.3235 31.8679 59.8659 31.5307 59.4203 31.3621C58.9867 31.1935 58.5471 31.1092 58.1015 31.1092C57.4392 31.1092 56.837 31.2296 56.295 31.4705C55.7651 31.6993 55.3075 32.0245 54.9221 32.446C54.5367 32.8555 54.2356 33.3372 54.0188 33.8912C53.8141 34.4452 53.7117 35.0413 53.7117 35.6796C53.7117 36.3661 53.8141 36.9984 54.0188 37.5765C54.2356 38.1545 54.5367 38.6543 54.9221 39.0759C55.3075 39.4974 55.7651 39.8286 56.295 40.0694C56.837 40.3103 57.4392 40.4307 58.1015 40.4307C58.6194 40.4307 59.1192 40.3103 59.6009 40.0694C60.0947 39.8165 60.5524 39.4191 60.9739 38.8771L62.8526 40.214C62.2746 41.0088 61.57 41.5869 60.739 41.9482C59.908 42.3095 59.0229 42.4902 58.0835 42.4902C57.0959 42.4902 56.1866 42.3336 55.3557 42.0205C54.5367 41.6953 53.8261 41.2437 53.224 40.6656C52.6339 40.0755 52.1702 39.3709 51.833 38.552C51.4958 37.733 51.3271 36.8238 51.3271 35.8242C51.3271 34.8005 51.4958 33.8731 51.833 33.0421C52.1702 32.1991 52.6339 31.4825 53.224 30.8924C53.8261 30.3023 54.5367 29.8506 55.3557 29.5375C56.1866 29.2123 57.0959 29.0498 58.0835 29.0498C58.9506 29.0498 59.7515 29.2063 60.4861 29.5195C61.2328 29.8205 61.9253 30.3384 62.5636 31.073L60.7932 32.3737Z" fill="#FF7761"/>
<path d="M66.3495 34.7041H66.3856C66.5542 34.3428 66.8493 34.0176 67.2708 33.7286C67.7044 33.4275 68.2584 33.277 68.9328 33.277C69.5109 33.277 69.9986 33.3733 70.3961 33.566C70.8055 33.7587 71.1367 34.0116 71.3896 34.3248C71.6426 34.6379 71.8232 34.9992 71.9316 35.4087C72.04 35.8181 72.0942 36.2457 72.0942 36.6913V42.165H69.9264V37.7752C69.9264 37.5343 69.9143 37.2694 69.8902 36.9803C69.8662 36.6792 69.7999 36.4022 69.6915 36.1493C69.5952 35.8844 69.4386 35.6676 69.2218 35.499C69.0051 35.3183 68.71 35.228 68.3367 35.228C67.9754 35.228 67.6682 35.2882 67.4153 35.4087C67.1745 35.5291 66.9697 35.6917 66.8011 35.8964C66.6446 36.1011 66.5301 36.336 66.4579 36.6009C66.3856 36.8659 66.3495 37.1429 66.3495 37.4319V42.165H64.1817V28.5078H66.3495V34.7041Z" fill="#FF7761"/>
<path d="M79.9745 40.9727H79.9203C79.6072 41.4665 79.2097 41.8278 78.728 42.0566C78.2463 42.2734 77.7164 42.3818 77.1383 42.3818C76.7408 42.3818 76.3494 42.3276 75.964 42.2192C75.5907 42.1108 75.2535 41.9482 74.9524 41.7314C74.6634 41.5146 74.4285 41.2437 74.2479 40.9185C74.0672 40.5933 73.9769 40.214 73.9769 39.7804C73.9769 39.3107 74.0612 38.9133 74.2298 38.5881C74.3984 38.2509 74.6212 37.9739 74.8982 37.7571C75.1873 37.5283 75.5184 37.3476 75.8918 37.2152C76.2651 37.0827 76.6505 36.9863 77.048 36.9261C77.4574 36.8539 77.8669 36.8117 78.2764 36.7997C78.6858 36.7756 79.0712 36.7635 79.4325 36.7635H79.9745V36.5287C79.9745 35.9867 79.7878 35.5833 79.4145 35.3183C79.0411 35.0413 78.5654 34.9028 77.9873 34.9028C77.5297 34.9028 77.1021 34.9871 76.7047 35.1557C76.3073 35.3123 75.964 35.5291 75.675 35.8061L74.5369 34.668C75.0186 34.1742 75.5787 33.8189 76.217 33.6022C76.8673 33.3854 77.5357 33.277 78.2222 33.277C78.8364 33.277 79.3543 33.3492 79.7758 33.4938C80.1973 33.6262 80.5465 33.8009 80.8235 34.0176C81.1005 34.2344 81.3113 34.4873 81.4558 34.7764C81.6124 35.0534 81.7208 35.3364 81.781 35.6254C81.8533 35.9145 81.8954 36.1975 81.9074 36.4745C81.9195 36.7394 81.9255 36.9743 81.9255 37.179V42.165H79.9745V40.9727ZM79.848 38.281H79.3964C79.0953 38.281 78.7581 38.293 78.3848 38.3171C78.0114 38.3412 77.6561 38.4014 77.3189 38.4978C76.9938 38.5821 76.7168 38.7146 76.4879 38.8952C76.2591 39.0638 76.1447 39.3047 76.1447 39.6178C76.1447 39.8225 76.1868 39.9972 76.2712 40.1417C76.3675 40.2742 76.4879 40.3886 76.6325 40.4849C76.777 40.5813 76.9396 40.6535 77.1202 40.7017C77.3009 40.7378 77.4815 40.7559 77.6622 40.7559C78.4089 40.7559 78.9568 40.5813 79.3061 40.232C79.6674 39.8707 79.848 39.383 79.848 38.7688V38.281Z" fill="#FF7761"/>
<path d="M84.294 33.4938H86.4618V42.165H84.294V33.4938ZM83.9869 30.5492C83.9869 30.1999 84.1134 29.8988 84.3663 29.6459C84.6312 29.381 84.9624 29.2485 85.3598 29.2485C85.7573 29.2485 86.0885 29.3749 86.3534 29.6278C86.6304 29.8687 86.7689 30.1758 86.7689 30.5492C86.7689 30.9225 86.6304 31.2356 86.3534 31.4885C86.0885 31.7294 85.7573 31.8498 85.3598 31.8498C84.9624 31.8498 84.6312 31.7234 84.3663 31.4705C84.1134 31.2055 83.9869 30.8984 83.9869 30.5492Z" fill="#FF7761"/>
<path d="M88.9505 33.4938H91.01V34.8848H91.0461C91.2508 34.4512 91.564 34.0779 91.9855 33.7647C92.407 33.4396 92.9791 33.277 93.7017 33.277C94.2797 33.277 94.7675 33.3733 95.1649 33.566C95.5744 33.7587 95.9056 34.0116 96.1585 34.3248C96.4114 34.6379 96.5921 34.9992 96.7005 35.4087C96.8088 35.8181 96.863 36.2457 96.863 36.6913V42.165H94.6952V37.7752C94.6952 37.5343 94.6832 37.2694 94.6591 36.9803C94.635 36.6792 94.5688 36.4022 94.4604 36.1493C94.364 35.8844 94.2075 35.6676 93.9907 35.499C93.7739 35.3183 93.4789 35.228 93.1055 35.228C92.7442 35.228 92.4371 35.2882 92.1842 35.4087C91.9433 35.5291 91.7386 35.6917 91.57 35.8964C91.4134 36.1011 91.299 36.336 91.2267 36.6009C91.1545 36.8659 91.1184 37.1429 91.1184 37.4319V42.165H88.9505V33.4938Z" fill="#FF7761"/>
<path d="M7.13569 32.1492C6.89482 31.7999 6.56965 31.547 6.16018 31.3904C5.76275 31.2218 5.34123 31.1375 4.89563 31.1375C4.63067 31.1375 4.37174 31.1676 4.11883 31.2279C3.87796 31.2881 3.65516 31.3844 3.45042 31.5169C3.25773 31.6494 3.10116 31.824 2.98073 32.0408C2.8603 32.2455 2.80008 32.4924 2.80008 32.7815C2.80008 33.215 2.95062 33.5462 3.25171 33.775C3.55279 34.0039 3.92613 34.2026 4.37174 34.3712C4.81734 34.5398 5.3051 34.7024 5.83501 34.8589C6.36491 35.0155 6.85267 35.2323 7.29828 35.5093C7.74388 35.7863 8.11722 36.1536 8.41831 36.6112C8.71939 37.0689 8.86993 37.6771 8.86993 38.4358C8.86993 39.1223 8.74348 39.7245 8.49057 40.2423C8.23766 40.7481 7.89442 41.1697 7.46086 41.5069C7.03934 41.8441 6.54556 42.097 5.97953 42.2656C5.41349 42.4342 4.81734 42.5185 4.19109 42.5185C3.39623 42.5185 2.63147 42.386 1.89683 42.1211C1.16218 41.8561 0.529908 41.4105 0 40.7843L1.71618 39.1223C1.99318 39.5438 2.35448 39.875 2.80008 40.1159C3.25773 40.3447 3.73946 40.4591 4.24528 40.4591C4.51024 40.4591 4.77519 40.423 5.04014 40.3507C5.3051 40.2784 5.54597 40.1701 5.76275 40.0255C5.97953 39.881 6.15416 39.7004 6.28663 39.4836C6.41911 39.2548 6.48535 38.9958 6.48535 38.7068C6.48535 38.2371 6.33481 37.8758 6.03372 37.6229C5.73264 37.37 5.35929 37.1592 4.91369 36.9906C4.46809 36.81 3.98033 36.6414 3.45042 36.4848C2.92051 36.3282 2.43276 36.1175 1.98715 35.8525C1.54155 35.5755 1.16821 35.2142 0.867122 34.7686C0.566038 34.311 0.415496 33.7028 0.415496 32.944C0.415496 32.2817 0.547973 31.7096 0.812927 31.2279C1.08992 30.7461 1.4452 30.3487 1.87876 30.0356C2.32437 29.7104 2.83019 29.4695 3.39623 29.313C3.96226 29.1564 4.54035 29.0781 5.13047 29.0781C5.8049 29.0781 6.45524 29.1805 7.08149 29.3852C7.71979 29.59 8.29185 29.9272 8.79767 30.3969L7.13569 32.1492Z" fill="#3C515B"/>
<path d="M10.9514 33.5221H13.0108V34.877H13.0469C13.2396 34.4675 13.5467 34.1062 13.9682 33.7931C14.4018 33.4679 14.9799 33.3053 15.7025 33.3053C17.0634 33.3053 17.9666 33.8413 18.4122 34.9131C18.7253 34.3591 19.1168 33.9557 19.5864 33.7028C20.0561 33.4378 20.6162 33.3053 21.2665 33.3053C21.8446 33.3053 22.3323 33.4017 22.7298 33.5944C23.1272 33.7871 23.4463 34.052 23.6872 34.3892C23.9401 34.7265 24.1208 35.1239 24.2292 35.5815C24.3376 36.0271 24.3917 36.5089 24.3917 37.0267V42.1933H22.2239V37.2797C22.2239 37.0147 22.1999 36.7618 22.1517 36.5209C22.1035 36.268 22.0192 36.0512 21.8988 35.8706C21.7783 35.6779 21.6158 35.5273 21.411 35.419C21.2063 35.3106 20.9413 35.2564 20.6162 35.2564C20.2789 35.2564 19.9899 35.3226 19.749 35.4551C19.5202 35.5755 19.3275 35.7441 19.171 35.9609C19.0264 36.1656 18.918 36.4065 18.8458 36.6835C18.7856 36.9485 18.7555 37.2194 18.7555 37.4964V42.1933H16.5877V37.0267C16.5877 36.4848 16.4732 36.0573 16.2444 35.7441C16.0156 35.419 15.6362 35.2564 15.1063 35.2564C14.745 35.2564 14.4379 35.3166 14.185 35.437C13.9441 35.5575 13.7394 35.72 13.5708 35.9248C13.4142 36.1295 13.2998 36.3644 13.2276 36.6293C13.1553 36.8943 13.1192 37.1713 13.1192 37.4603V42.1933H10.9514V33.5221Z" fill="#3C515B"/>
<path d="M32.1799 41.0011H32.1257C31.8126 41.4948 31.4151 41.8561 30.9334 42.085C30.4517 42.3017 29.9218 42.4101 29.3437 42.4101C28.9463 42.4101 28.5548 42.3559 28.1695 42.2475C27.7961 42.1391 27.4589 41.9766 27.1578 41.7598C26.8688 41.543 26.6339 41.272 26.4533 40.9469C26.2726 40.6217 26.1823 40.2423 26.1823 39.8088C26.1823 39.3391 26.2666 38.9416 26.4352 38.6165C26.6038 38.2793 26.8266 38.0023 27.1036 37.7855C27.3927 37.5566 27.7239 37.376 28.0972 37.2435C28.4705 37.111 28.8559 37.0147 29.2534 36.9545C29.6628 36.8822 30.0723 36.8401 30.4818 36.828C30.8913 36.8039 31.2766 36.7919 31.6379 36.7919H32.1799V36.5571C32.1799 36.0151 31.9932 35.6116 31.6199 35.3467C31.2465 35.0697 30.7708 34.9312 30.1927 34.9312C29.7351 34.9312 29.3076 35.0155 28.9101 35.1841C28.5127 35.3407 28.1695 35.5575 27.8804 35.8344L26.7423 34.6964C27.2241 34.2026 27.7841 33.8473 28.4224 33.6305C29.0727 33.4137 29.7411 33.3053 30.4276 33.3053C31.0418 33.3053 31.5597 33.3776 31.9812 33.5221C32.4027 33.6546 32.752 33.8292 33.029 34.046C33.306 34.2628 33.5167 34.5157 33.6612 34.8047C33.8178 35.0817 33.9262 35.3648 33.9864 35.6538C34.0587 35.9428 34.1008 36.2259 34.1129 36.5029C34.1249 36.7678 34.1309 37.0027 34.1309 37.2074V42.1933H32.1799V41.0011ZM32.0534 38.3094H31.6018C31.3007 38.3094 30.9635 38.3214 30.5902 38.3455C30.2168 38.3696 29.8616 38.4298 29.5243 38.5261C29.1992 38.6104 28.9222 38.7429 28.6933 38.9236C28.4645 39.0922 28.3501 39.333 28.3501 39.6462C28.3501 39.8509 28.3923 40.0255 28.4766 40.1701C28.5729 40.3025 28.6933 40.4169 28.8379 40.5133C28.9824 40.6096 29.145 40.6819 29.3256 40.7301C29.5063 40.7662 29.6869 40.7843 29.8676 40.7843C30.6143 40.7843 31.1622 40.6096 31.5115 40.2604C31.8728 39.8991 32.0534 39.4113 32.0534 38.7971V38.3094Z" fill="#3C515B"/>
<path d="M36.4633 33.5221H38.6311V34.8951H38.6672C38.9081 34.3892 39.2513 33.9978 39.6969 33.7208C40.1425 33.4438 40.6544 33.3053 41.2325 33.3053C41.3649 33.3053 41.4914 33.3174 41.6118 33.3415C41.7443 33.3656 41.8768 33.3957 42.0093 33.4318V35.5273C41.8286 35.4792 41.648 35.443 41.4673 35.419C41.2987 35.3828 41.1301 35.3648 40.9615 35.3648C40.4557 35.3648 40.0462 35.4611 39.7331 35.6538C39.432 35.8344 39.1971 36.0452 39.0285 36.2861C38.872 36.5269 38.7636 36.7678 38.7033 37.0087C38.6552 37.2495 38.6311 37.4302 38.6311 37.5506V42.1933H36.4633V33.5221Z" fill="#3C515B"/>
<path d="M42.473 35.3648V33.5221H44.2615V31.0111H46.4293V33.5221H48.8138V35.3648H46.4293V39.1584C46.4293 39.592 46.5075 39.9352 46.6641 40.1881C46.8327 40.441 47.1579 40.5675 47.6396 40.5675C47.8323 40.5675 48.0431 40.5494 48.2719 40.5133C48.5007 40.4651 48.6814 40.3929 48.8138 40.2965V42.1211C48.585 42.2295 48.302 42.3017 47.9648 42.3379C47.6396 42.386 47.3506 42.4101 47.0977 42.4101C46.5196 42.4101 46.0439 42.3439 45.6705 42.2114C45.3092 42.091 45.0202 41.9043 44.8034 41.6514C44.5987 41.3864 44.4541 41.0613 44.3698 40.6759C44.2976 40.2905 44.2615 39.8449 44.2615 39.3391V35.3648H42.473Z" fill="#3C515B"/>
<path d="M39.4822 7.17969C40.9321 7.18054 42.3604 7.53022 43.6458 8.19903C44.9312 8.86785 46.0358 9.83605 46.8658 11.0214C47.071 11.3151 47.1508 11.6781 47.0877 12.0305C47.0247 12.3828 46.8238 12.6958 46.5294 12.9007C46.3835 13.0023 46.2189 13.0743 46.045 13.1125C45.8711 13.1506 45.6914 13.1542 45.5161 13.1231C45.3409 13.0919 45.1735 13.0266 45.0235 12.9309C44.8736 12.8352 44.7441 12.711 44.6423 12.5653C44.0628 11.7362 43.291 11.0589 42.3926 10.5911C41.4942 10.1232 40.4957 9.87864 39.4822 9.87814C37.8152 9.87992 36.217 10.5408 35.0381 11.7158C33.8591 12.8908 33.1957 14.484 33.1933 16.146C33.1951 17.8084 33.8583 19.4022 35.0373 20.5777C36.2163 21.7532 37.8148 22.4143 39.4822 22.4161C40.4935 22.4142 41.4895 22.1696 42.386 21.7031C43.2826 21.2365 44.0534 20.5617 44.6333 19.7357L44.8116 19.4746L44.859 19.4273L48.1411 14.6404L50.5993 11.0394V11.0214C51.4292 9.83605 52.5338 8.86785 53.8192 8.19903C55.1047 7.53022 56.533 7.18054 57.9829 7.17969C60.3681 7.18207 62.6549 8.12766 64.3417 9.80902C66.0285 11.4904 66.9775 13.7702 66.9805 16.1482C66.9781 18.5267 66.0294 20.8071 64.3425 22.4889C62.6557 24.1708 60.3685 25.1167 57.9829 25.1191C56.5341 25.1184 55.1068 24.7692 53.8222 24.1012C52.5376 23.4332 51.4335 22.466 50.6038 21.2818C50.3984 20.9884 50.3182 20.6256 50.3808 20.2733C50.4435 19.9209 50.6438 19.6078 50.9379 19.4026C51.0837 19.3008 51.2482 19.2287 51.422 19.1904C51.5958 19.152 51.7754 19.1482 51.9507 19.1792C52.126 19.2101 52.2934 19.2752 52.4434 19.3707C52.5934 19.4661 52.7231 19.5902 52.825 19.7357C53.4053 20.5631 54.1771 21.2389 55.0749 21.7059C55.9728 22.1729 56.9702 22.4173 57.9829 22.4184C59.6503 22.4166 61.2488 21.7554 62.4278 20.5799C63.6068 19.4044 64.2699 17.8106 64.2717 16.1482C64.2693 14.4862 63.6059 12.893 62.427 11.718C61.2481 10.543 59.6499 9.88217 57.9829 9.88038C56.9773 9.8809 55.9864 10.1217 55.0933 10.5826C54.2002 11.0435 53.4309 11.711 52.8498 12.5293L52.8318 12.5563L50.3488 16.182L46.8635 21.2706C46.0335 22.4545 44.9294 23.4214 43.6449 24.0894C42.3603 24.7574 40.9332 25.1067 39.4844 25.1078C37.0988 25.1054 34.8117 24.1595 33.1248 22.4777C31.438 20.7959 30.4892 18.5155 30.4869 16.137C30.4928 13.7613 31.4428 11.4847 33.1288 9.80582C34.8148 8.12697 37.0993 7.18266 39.4822 7.17969V7.17969Z" fill="url(#paint0_linear_1026_11439)"/>
<circle r="2.96275" transform="matrix(-1 0 0 1 58.0851 2.96275)" fill="#03BA96"/>
<circle r="2.96275" transform="matrix(-1 0 0 1 39.6183 2.96275)" fill="#FF7761"/>
<defs>
<linearGradient id="paint0_linear_1026_11439" x1="37.5871" y1="14.0783" x2="61.4327" y2="14.0783" gradientUnits="userSpaceOnUse">
<stop stop-color="#FF7761"/>
<stop offset="0.254082" stop-color="#C2612D"/>
<stop offset="0.619458" stop-color="#3C515B"/>
<stop offset="1" stop-color="#03BA96"/>
</linearGradient>
</defs>
</svg>
