<svg width="326" height="47" viewBox="0 0 326 47" fill="none" xmlns="http://www.w3.org/2000/svg">
<path d="M8.29688 2.44922L2.64844 18H0.339844L6.84375 0.9375H8.33203L8.29688 2.44922ZM13.0312 18L7.37109 2.44922L7.33594 0.9375H8.82422L15.3516 18H13.0312ZM12.7383 11.6836V13.5352H3.15234V11.6836H12.7383ZM20.9781 16.043L24.4469 5.32031H26.6617L22.1031 18H20.65L20.9781 16.043ZM18.0836 5.32031L21.6578 16.1016L21.9039 18H20.4508L15.857 5.32031H18.0836ZM31.5031 5.32031V18H29.3234V5.32031H31.5031ZM29.1594 1.95703C29.1594 1.60547 29.2648 1.30859 29.4758 1.06641C29.6945 0.824219 30.0148 0.703125 30.4367 0.703125C30.8508 0.703125 31.1672 0.824219 31.3859 1.06641C31.6125 1.30859 31.7258 1.60547 31.7258 1.95703C31.7258 2.29297 31.6125 2.58203 31.3859 2.82422C31.1672 3.05859 30.8508 3.17578 30.4367 3.17578C30.0148 3.17578 29.6945 3.05859 29.4758 2.82422C29.2648 2.58203 29.1594 2.29297 29.1594 1.95703ZM42.7664 14.6367C42.7664 14.3242 42.6961 14.0352 42.5555 13.7695C42.4227 13.4961 42.1453 13.25 41.7234 13.0312C41.3094 12.8047 40.6844 12.6094 39.8484 12.4453C39.1453 12.2969 38.5086 12.1211 37.9383 11.918C37.3758 11.7148 36.8953 11.4688 36.4969 11.1797C36.1063 10.8906 35.8055 10.5508 35.5945 10.1602C35.3836 9.76953 35.2781 9.3125 35.2781 8.78906C35.2781 8.28906 35.3875 7.81641 35.6063 7.37109C35.8328 6.92578 36.1492 6.53125 36.5555 6.1875C36.9695 5.84375 37.4656 5.57422 38.0438 5.37891C38.6219 5.18359 39.2664 5.08594 39.9773 5.08594C40.993 5.08594 41.8602 5.26562 42.5789 5.625C43.2977 5.98438 43.8484 6.46484 44.2313 7.06641C44.6141 7.66016 44.8055 8.32031 44.8055 9.04688H42.6375C42.6375 8.69531 42.532 8.35547 42.3211 8.02734C42.118 7.69141 41.8172 7.41406 41.4188 7.19531C41.0281 6.97656 40.5477 6.86719 39.9773 6.86719C39.3758 6.86719 38.8875 6.96094 38.5125 7.14844C38.1453 7.32812 37.8758 7.55859 37.7039 7.83984C37.5398 8.12109 37.4578 8.41797 37.4578 8.73047C37.4578 8.96484 37.4969 9.17578 37.575 9.36328C37.6609 9.54297 37.8094 9.71094 38.0203 9.86719C38.2313 10.0156 38.5281 10.1562 38.9109 10.2891C39.2938 10.4219 39.782 10.5547 40.3758 10.6875C41.4148 10.9219 42.2703 11.2031 42.9422 11.5312C43.6141 11.8594 44.1141 12.2617 44.4422 12.7383C44.7703 13.2148 44.9344 13.793 44.9344 14.4727C44.9344 15.0273 44.8172 15.5352 44.5828 15.9961C44.3563 16.457 44.0242 16.8555 43.5867 17.1914C43.157 17.5195 42.6414 17.7773 42.0398 17.9648C41.4461 18.1445 40.7781 18.2344 40.0359 18.2344C38.9188 18.2344 37.9734 18.0352 37.2 17.6367C36.4266 17.2383 35.8406 16.7227 35.4422 16.0898C35.0438 15.457 34.8445 14.7891 34.8445 14.0859H37.0242C37.0555 14.6797 37.2273 15.1523 37.5398 15.5039C37.8523 15.8477 38.2352 16.0938 38.6883 16.2422C39.1414 16.3828 39.5906 16.4531 40.0359 16.4531C40.6297 16.4531 41.1258 16.375 41.5242 16.2188C41.9305 16.0625 42.2391 15.8477 42.45 15.5742C42.6609 15.3008 42.7664 14.9883 42.7664 14.6367ZM47.6078 11.8008V11.5312C47.6078 10.6172 47.7406 9.76953 48.0062 8.98828C48.2719 8.19922 48.6547 7.51562 49.1547 6.9375C49.6547 6.35156 50.2602 5.89844 50.9711 5.57812C51.682 5.25 52.4789 5.08594 53.3617 5.08594C54.2523 5.08594 55.0531 5.25 55.7641 5.57812C56.4828 5.89844 57.0922 6.35156 57.5922 6.9375C58.1 7.51562 58.4867 8.19922 58.7523 8.98828C59.018 9.76953 59.1508 10.6172 59.1508 11.5312V11.8008C59.1508 12.7148 59.018 13.5625 58.7523 14.3438C58.4867 15.125 58.1 15.8086 57.5922 16.3945C57.0922 16.9727 56.4867 17.4258 55.7758 17.7539C55.0727 18.0742 54.2758 18.2344 53.3852 18.2344C52.4945 18.2344 51.6937 18.0742 50.9828 17.7539C50.2719 17.4258 49.6625 16.9727 49.1547 16.3945C48.6547 15.8086 48.2719 15.125 48.0062 14.3438C47.7406 13.5625 47.6078 12.7148 47.6078 11.8008ZM49.7758 11.5312V11.8008C49.7758 12.4336 49.85 13.0312 49.9984 13.5938C50.1469 14.1484 50.3695 14.6406 50.6664 15.0703C50.9711 15.5 51.35 15.8398 51.8031 16.0898C52.2562 16.332 52.7836 16.4531 53.3852 16.4531C53.9789 16.4531 54.4984 16.332 54.9437 16.0898C55.3969 15.8398 55.7719 15.5 56.0687 15.0703C56.3656 14.6406 56.5883 14.1484 56.7367 13.5938C56.893 13.0312 56.9711 12.4336 56.9711 11.8008V11.5312C56.9711 10.9062 56.893 10.3164 56.7367 9.76172C56.5883 9.19922 56.3617 8.70312 56.057 8.27344C55.7602 7.83594 55.3852 7.49219 54.932 7.24219C54.4867 6.99219 53.9633 6.86719 53.3617 6.86719C52.768 6.86719 52.2445 6.99219 51.7914 7.24219C51.3461 7.49219 50.9711 7.83594 50.6664 8.27344C50.3695 8.70312 50.1469 9.19922 49.9984 9.76172C49.85 10.3164 49.7758 10.9062 49.7758 11.5312ZM76.6148 15.5391V0H78.7945V18H76.8023L76.6148 15.5391ZM68.0836 11.8008V11.5547C68.0836 10.5859 68.2008 9.70703 68.4352 8.91797C68.6773 8.12109 69.0172 7.4375 69.4547 6.86719C69.9 6.29688 70.4273 5.85938 71.0367 5.55469C71.6539 5.24219 72.3414 5.08594 73.0992 5.08594C73.8961 5.08594 74.5914 5.22656 75.1852 5.50781C75.7867 5.78125 76.2945 6.18359 76.7086 6.71484C77.1305 7.23828 77.4625 7.87109 77.7047 8.61328C77.9469 9.35547 78.1148 10.1953 78.2086 11.1328V12.2109C78.1227 13.1406 77.9547 13.9766 77.7047 14.7188C77.4625 15.4609 77.1305 16.0938 76.7086 16.6172C76.2945 17.1406 75.7867 17.543 75.1852 17.8242C74.5836 18.0977 73.8805 18.2344 73.0758 18.2344C72.3336 18.2344 71.6539 18.0742 71.0367 17.7539C70.4273 17.4336 69.9 16.9844 69.4547 16.4062C69.0172 15.8281 68.6773 15.1484 68.4352 14.3672C68.2008 13.5781 68.0836 12.7227 68.0836 11.8008ZM70.2633 11.5547V11.8008C70.2633 12.4336 70.3258 13.0273 70.4508 13.582C70.5836 14.1367 70.7867 14.625 71.0602 15.0469C71.3336 15.4688 71.6813 15.8008 72.1031 16.043C72.525 16.2773 73.0289 16.3945 73.6148 16.3945C74.3336 16.3945 74.9234 16.2422 75.3844 15.9375C75.8531 15.6328 76.2281 15.2305 76.5094 14.7305C76.7906 14.2305 77.0094 13.6875 77.1656 13.1016V10.2773C77.0719 9.84766 76.9352 9.43359 76.7555 9.03516C76.5836 8.62891 76.357 8.26953 76.0758 7.95703C75.8023 7.63672 75.4625 7.38281 75.0563 7.19531C74.6578 7.00781 74.1852 6.91406 73.6383 6.91406C73.0445 6.91406 72.5328 7.03906 72.1031 7.28906C71.6813 7.53125 71.3336 7.86719 71.0602 8.29688C70.7867 8.71875 70.5836 9.21094 70.4508 9.77344C70.3258 10.3281 70.2633 10.9219 70.2633 11.5547ZM87.8313 18.2344C86.9484 18.2344 86.1477 18.0859 85.4289 17.7891C84.718 17.4844 84.1047 17.0586 83.5891 16.5117C83.0813 15.9648 82.6906 15.3164 82.4172 14.5664C82.1438 13.8164 82.007 12.9961 82.007 12.1055V11.6133C82.007 10.582 82.1594 9.66406 82.4641 8.85938C82.7688 8.04688 83.1828 7.35938 83.7063 6.79688C84.2297 6.23438 84.8234 5.80859 85.4875 5.51953C86.1516 5.23047 86.8391 5.08594 87.55 5.08594C88.4563 5.08594 89.2375 5.24219 89.8938 5.55469C90.5578 5.86719 91.1008 6.30469 91.5227 6.86719C91.9445 7.42188 92.257 8.07812 92.4602 8.83594C92.6633 9.58594 92.7648 10.4062 92.7648 11.2969V12.2695H83.2961V10.5H90.5969V10.3359C90.5656 9.77344 90.4484 9.22656 90.2453 8.69531C90.05 8.16406 89.7375 7.72656 89.3078 7.38281C88.8781 7.03906 88.2922 6.86719 87.55 6.86719C87.0578 6.86719 86.6047 6.97266 86.1906 7.18359C85.7766 7.38672 85.4211 7.69141 85.1242 8.09766C84.8273 8.50391 84.5969 9 84.4328 9.58594C84.2688 10.1719 84.1867 10.8477 84.1867 11.6133V12.1055C84.1867 12.707 84.2688 13.2734 84.4328 13.8047C84.6047 14.3281 84.8508 14.7891 85.1711 15.1875C85.4992 15.5859 85.8938 15.8984 86.3547 16.125C86.8234 16.3516 87.3547 16.4648 87.9484 16.4648C88.7141 16.4648 89.3625 16.3086 89.8938 15.9961C90.425 15.6836 90.8898 15.2656 91.2883 14.7422L92.6008 15.7852C92.3273 16.1992 91.9797 16.5938 91.5578 16.9688C91.1359 17.3438 90.6164 17.6484 89.9992 17.8828C89.3898 18.1172 88.6672 18.2344 87.8313 18.2344ZM109.432 14.6367C109.432 14.3242 109.362 14.0352 109.221 13.7695C109.088 13.4961 108.811 13.25 108.389 13.0312C107.975 12.8047 107.35 12.6094 106.514 12.4453C105.811 12.2969 105.174 12.1211 104.604 11.918C104.041 11.7148 103.561 11.4688 103.162 11.1797C102.772 10.8906 102.471 10.5508 102.26 10.1602C102.049 9.76953 101.944 9.3125 101.944 8.78906C101.944 8.28906 102.053 7.81641 102.272 7.37109C102.498 6.92578 102.815 6.53125 103.221 6.1875C103.635 5.84375 104.131 5.57422 104.709 5.37891C105.287 5.18359 105.932 5.08594 106.643 5.08594C107.659 5.08594 108.526 5.26562 109.245 5.625C109.963 5.98438 110.514 6.46484 110.897 7.06641C111.28 7.66016 111.471 8.32031 111.471 9.04688H109.303C109.303 8.69531 109.198 8.35547 108.987 8.02734C108.784 7.69141 108.483 7.41406 108.084 7.19531C107.694 6.97656 107.213 6.86719 106.643 6.86719C106.041 6.86719 105.553 6.96094 105.178 7.14844C104.811 7.32812 104.541 7.55859 104.37 7.83984C104.205 8.12109 104.123 8.41797 104.123 8.73047C104.123 8.96484 104.162 9.17578 104.241 9.36328C104.327 9.54297 104.475 9.71094 104.686 9.86719C104.897 10.0156 105.194 10.1562 105.577 10.2891C105.959 10.4219 106.448 10.5547 107.041 10.6875C108.08 10.9219 108.936 11.2031 109.608 11.5312C110.28 11.8594 110.78 12.2617 111.108 12.7383C111.436 13.2148 111.6 13.793 111.6 14.4727C111.6 15.0273 111.483 15.5352 111.248 15.9961C111.022 16.457 110.69 16.8555 110.252 17.1914C109.823 17.5195 109.307 17.7773 108.705 17.9648C108.112 18.1445 107.444 18.2344 106.702 18.2344C105.584 18.2344 104.639 18.0352 103.866 17.6367C103.092 17.2383 102.506 16.7227 102.108 16.0898C101.709 15.457 101.51 14.7891 101.51 14.0859H103.69C103.721 14.6797 103.893 15.1523 104.205 15.5039C104.518 15.8477 104.901 16.0938 105.354 16.2422C105.807 16.3828 106.256 16.4531 106.702 16.4531C107.295 16.4531 107.791 16.375 108.19 16.2188C108.596 16.0625 108.905 15.8477 109.116 15.5742C109.327 15.3008 109.432 14.9883 109.432 14.6367ZM122.605 15.0703V5.32031H124.785V18H122.711L122.605 15.0703ZM123.016 12.3984L123.918 12.375C123.918 13.2188 123.828 14 123.648 14.7188C123.477 15.4297 123.195 16.0469 122.805 16.5703C122.414 17.0938 121.902 17.5039 121.27 17.8008C120.637 18.0898 119.867 18.2344 118.961 18.2344C118.344 18.2344 117.777 18.1445 117.262 17.9648C116.754 17.7852 116.316 17.5078 115.949 17.1328C115.582 16.7578 115.297 16.2695 115.094 15.668C114.898 15.0664 114.801 14.3438 114.801 13.5V5.32031H116.969V13.5234C116.969 14.0938 117.031 14.5664 117.156 14.9414C117.289 15.3086 117.465 15.6016 117.684 15.8203C117.91 16.0312 118.16 16.1797 118.434 16.2656C118.715 16.3516 119.004 16.3945 119.301 16.3945C120.223 16.3945 120.953 16.2188 121.492 15.8672C122.031 15.5078 122.418 15.0273 122.652 14.4258C122.895 13.8164 123.016 13.1406 123.016 12.3984ZM128.478 0H130.658V15.5391L130.47 18H128.478V0ZM139.224 11.5547V11.8008C139.224 12.7227 139.115 13.5781 138.896 14.3672C138.677 15.1484 138.357 15.8281 137.935 16.4062C137.513 16.9844 136.998 17.4336 136.388 17.7539C135.779 18.0742 135.08 18.2344 134.291 18.2344C133.486 18.2344 132.779 18.0977 132.17 17.8242C131.568 17.543 131.06 17.1406 130.646 16.6172C130.232 16.0938 129.9 15.4609 129.65 14.7188C129.408 13.9766 129.24 13.1406 129.146 12.2109V11.1328C129.24 10.1953 129.408 9.35547 129.65 8.61328C129.9 7.87109 130.232 7.23828 130.646 6.71484C131.06 6.18359 131.568 5.78125 132.17 5.50781C132.771 5.22656 133.47 5.08594 134.267 5.08594C135.064 5.08594 135.771 5.24219 136.388 5.55469C137.005 5.85938 137.521 6.29688 137.935 6.86719C138.357 7.4375 138.677 8.12109 138.896 8.91797C139.115 9.70703 139.224 10.5859 139.224 11.5547ZM137.045 11.8008V11.5547C137.045 10.9219 136.986 10.3281 136.869 9.77344C136.752 9.21094 136.564 8.71875 136.306 8.29688C136.048 7.86719 135.709 7.53125 135.287 7.28906C134.865 7.03906 134.345 6.91406 133.728 6.91406C133.181 6.91406 132.705 7.00781 132.298 7.19531C131.9 7.38281 131.56 7.63672 131.279 7.95703C130.998 8.26953 130.767 8.62891 130.588 9.03516C130.416 9.43359 130.287 9.84766 130.201 10.2773V13.1016C130.326 13.6484 130.529 14.1758 130.81 14.6836C131.099 15.1836 131.482 15.5938 131.959 15.9141C132.443 16.2344 133.041 16.3945 133.752 16.3945C134.338 16.3945 134.838 16.2773 135.252 16.043C135.673 15.8008 136.013 15.4688 136.271 15.0469C136.537 14.625 136.732 14.1367 136.857 13.582C136.982 13.0273 137.045 12.4336 137.045 11.8008ZM144.722 5.32031V18H142.542V5.32031H144.722ZM142.378 1.95703C142.378 1.60547 142.484 1.30859 142.695 1.06641C142.913 0.824219 143.234 0.703125 143.655 0.703125C144.07 0.703125 144.386 0.824219 144.605 1.06641C144.831 1.30859 144.945 1.60547 144.945 1.95703C144.945 2.29297 144.831 2.58203 144.605 2.82422C144.386 3.05859 144.07 3.17578 143.655 3.17578C143.234 3.17578 142.913 3.05859 142.695 2.82422C142.484 2.58203 142.378 2.29297 142.378 1.95703ZM156.595 15.5391V0H158.774V18H156.782L156.595 15.5391ZM148.063 11.8008V11.5547C148.063 10.5859 148.18 9.70703 148.415 8.91797C148.657 8.12109 148.997 7.4375 149.434 6.86719C149.88 6.29688 150.407 5.85938 151.016 5.55469C151.634 5.24219 152.321 5.08594 153.079 5.08594C153.876 5.08594 154.571 5.22656 155.165 5.50781C155.766 5.78125 156.274 6.18359 156.688 6.71484C157.11 7.23828 157.442 7.87109 157.684 8.61328C157.927 9.35547 158.095 10.1953 158.188 11.1328V12.2109C158.102 13.1406 157.934 13.9766 157.684 14.7188C157.442 15.4609 157.11 16.0938 156.688 16.6172C156.274 17.1406 155.766 17.543 155.165 17.8242C154.563 18.0977 153.86 18.2344 153.055 18.2344C152.313 18.2344 151.634 18.0742 151.016 17.7539C150.407 17.4336 149.88 16.9844 149.434 16.4062C148.997 15.8281 148.657 15.1484 148.415 14.3672C148.18 13.5781 148.063 12.7227 148.063 11.8008ZM150.243 11.5547V11.8008C150.243 12.4336 150.305 13.0273 150.43 13.582C150.563 14.1367 150.766 14.625 151.04 15.0469C151.313 15.4688 151.661 15.8008 152.083 16.043C152.505 16.2773 153.009 16.3945 153.595 16.3945C154.313 16.3945 154.903 16.2422 155.364 15.9375C155.833 15.6328 156.208 15.2305 156.489 14.7305C156.77 14.2305 156.989 13.6875 157.145 13.1016V10.2773C157.052 9.84766 156.915 9.43359 156.735 9.03516C156.563 8.62891 156.337 8.26953 156.055 7.95703C155.782 7.63672 155.442 7.38281 155.036 7.19531C154.637 7.00781 154.165 6.91406 153.618 6.91406C153.024 6.91406 152.512 7.03906 152.083 7.28906C151.661 7.53125 151.313 7.86719 151.04 8.29688C150.766 8.71875 150.563 9.21094 150.43 9.77344C150.305 10.3281 150.243 10.9219 150.243 11.5547ZM170.026 15.832V9.30469C170.026 8.80469 169.924 8.37109 169.721 8.00391C169.526 7.62891 169.229 7.33984 168.83 7.13672C168.432 6.93359 167.94 6.83203 167.354 6.83203C166.807 6.83203 166.327 6.92578 165.913 7.11328C165.506 7.30078 165.186 7.54688 164.952 7.85156C164.725 8.15625 164.612 8.48438 164.612 8.83594H162.444C162.444 8.38281 162.561 7.93359 162.795 7.48828C163.03 7.04297 163.366 6.64062 163.803 6.28125C164.248 5.91406 164.78 5.625 165.397 5.41406C166.022 5.19531 166.717 5.08594 167.483 5.08594C168.405 5.08594 169.217 5.24219 169.92 5.55469C170.631 5.86719 171.186 6.33984 171.584 6.97266C171.991 7.59766 172.194 8.38281 172.194 9.32812V15.2344C172.194 15.6562 172.229 16.1055 172.299 16.582C172.377 17.0586 172.491 17.4688 172.639 17.8125V18H170.377C170.268 17.75 170.182 17.418 170.12 17.0039C170.057 16.582 170.026 16.1914 170.026 15.832ZM170.401 10.3125L170.424 11.8359H168.233C167.616 11.8359 167.065 11.8867 166.58 11.9883C166.096 12.082 165.69 12.2266 165.362 12.4219C165.034 12.6172 164.784 12.8633 164.612 13.1602C164.44 13.4492 164.354 13.7891 164.354 14.1797C164.354 14.5781 164.444 14.9414 164.623 15.2695C164.803 15.5977 165.073 15.8594 165.432 16.0547C165.799 16.2422 166.248 16.3359 166.78 16.3359C167.444 16.3359 168.03 16.1953 168.538 15.9141C169.045 15.6328 169.448 15.2891 169.745 14.8828C170.049 14.4766 170.213 14.082 170.237 13.6992L171.163 14.7422C171.108 15.0703 170.959 15.4336 170.717 15.832C170.475 16.2305 170.151 16.6133 169.745 16.9805C169.346 17.3398 168.87 17.6406 168.315 17.8828C167.768 18.1172 167.151 18.2344 166.463 18.2344C165.604 18.2344 164.85 18.0664 164.202 17.7305C163.561 17.3945 163.061 16.9453 162.702 16.3828C162.35 15.8125 162.174 15.1758 162.174 14.4727C162.174 13.793 162.307 13.1953 162.573 12.6797C162.838 12.1562 163.221 11.7227 163.721 11.3789C164.221 11.0273 164.823 10.7617 165.526 10.582C166.229 10.4023 167.014 10.3125 167.881 10.3125H170.401ZM190.349 15.5391V0H192.529V18H190.537L190.349 15.5391ZM181.818 11.8008V11.5547C181.818 10.5859 181.935 9.70703 182.17 8.91797C182.412 8.12109 182.752 7.4375 183.189 6.86719C183.634 6.29688 184.162 5.85938 184.771 5.55469C185.388 5.24219 186.076 5.08594 186.834 5.08594C187.63 5.08594 188.326 5.22656 188.92 5.50781C189.521 5.78125 190.029 6.18359 190.443 6.71484C190.865 7.23828 191.197 7.87109 191.439 8.61328C191.681 9.35547 191.849 10.1953 191.943 11.1328V12.2109C191.857 13.1406 191.689 13.9766 191.439 14.7188C191.197 15.4609 190.865 16.0938 190.443 16.6172C190.029 17.1406 189.521 17.543 188.92 17.8242C188.318 18.0977 187.615 18.2344 186.81 18.2344C186.068 18.2344 185.388 18.0742 184.771 17.7539C184.162 17.4336 183.634 16.9844 183.189 16.4062C182.752 15.8281 182.412 15.1484 182.17 14.3672C181.935 13.5781 181.818 12.7227 181.818 11.8008ZM183.998 11.5547V11.8008C183.998 12.4336 184.06 13.0273 184.185 13.582C184.318 14.1367 184.521 14.625 184.795 15.0469C185.068 15.4688 185.416 15.8008 185.837 16.043C186.259 16.2773 186.763 16.3945 187.349 16.3945C188.068 16.3945 188.658 16.2422 189.119 15.9375C189.587 15.6328 189.962 15.2305 190.244 14.7305C190.525 14.2305 190.744 13.6875 190.9 13.1016V10.2773C190.806 9.84766 190.67 9.43359 190.49 9.03516C190.318 8.62891 190.091 8.26953 189.81 7.95703C189.537 7.63672 189.197 7.38281 188.791 7.19531C188.392 7.00781 187.92 6.91406 187.373 6.91406C186.779 6.91406 186.267 7.03906 185.837 7.28906C185.416 7.53125 185.068 7.86719 184.795 8.29688C184.521 8.71875 184.318 9.21094 184.185 9.77344C184.06 10.3281 183.998 10.9219 183.998 11.5547ZM201.566 18.2344C200.683 18.2344 199.882 18.0859 199.163 17.7891C198.452 17.4844 197.839 17.0586 197.323 16.5117C196.816 15.9648 196.425 15.3164 196.152 14.5664C195.878 13.8164 195.741 12.9961 195.741 12.1055V11.6133C195.741 10.582 195.894 9.66406 196.198 8.85938C196.503 8.04688 196.917 7.35938 197.441 6.79688C197.964 6.23438 198.558 5.80859 199.222 5.51953C199.886 5.23047 200.573 5.08594 201.284 5.08594C202.191 5.08594 202.972 5.24219 203.628 5.55469C204.292 5.86719 204.835 6.30469 205.257 6.86719C205.679 7.42188 205.991 8.07812 206.195 8.83594C206.398 9.58594 206.499 10.4062 206.499 11.2969V12.2695H197.03V10.5H204.331V10.3359C204.3 9.77344 204.183 9.22656 203.98 8.69531C203.784 8.16406 203.472 7.72656 203.042 7.38281C202.613 7.03906 202.027 6.86719 201.284 6.86719C200.792 6.86719 200.339 6.97266 199.925 7.18359C199.511 7.38672 199.155 7.69141 198.859 8.09766C198.562 8.50391 198.331 9 198.167 9.58594C198.003 10.1719 197.921 10.8477 197.921 11.6133V12.1055C197.921 12.707 198.003 13.2734 198.167 13.8047C198.339 14.3281 198.585 14.7891 198.905 15.1875C199.234 15.5859 199.628 15.8984 200.089 16.125C200.558 16.3516 201.089 16.4648 201.683 16.4648C202.448 16.4648 203.097 16.3086 203.628 15.9961C204.159 15.6836 204.624 15.2656 205.023 14.7422L206.335 15.7852C206.062 16.1992 205.714 16.5938 205.292 16.9688C204.87 17.3438 204.351 17.6484 203.734 17.8828C203.124 18.1172 202.402 18.2344 201.566 18.2344ZM223.26 15.832V9.30469C223.26 8.80469 223.159 8.37109 222.955 8.00391C222.76 7.62891 222.463 7.33984 222.065 7.13672C221.666 6.93359 221.174 6.83203 220.588 6.83203C220.041 6.83203 219.561 6.92578 219.147 7.11328C218.741 7.30078 218.42 7.54688 218.186 7.85156C217.959 8.15625 217.846 8.48438 217.846 8.83594H215.678C215.678 8.38281 215.795 7.93359 216.03 7.48828C216.264 7.04297 216.6 6.64062 217.038 6.28125C217.483 5.91406 218.014 5.625 218.631 5.41406C219.256 5.19531 219.952 5.08594 220.717 5.08594C221.639 5.08594 222.452 5.24219 223.155 5.55469C223.866 5.86719 224.42 6.33984 224.819 6.97266C225.225 7.59766 225.428 8.38281 225.428 9.32812V15.2344C225.428 15.6562 225.463 16.1055 225.534 16.582C225.612 17.0586 225.725 17.4688 225.873 17.8125V18H223.612C223.502 17.75 223.416 17.418 223.354 17.0039C223.291 16.582 223.26 16.1914 223.26 15.832ZM223.635 10.3125L223.659 11.8359H221.467C220.85 11.8359 220.299 11.8867 219.815 11.9883C219.33 12.082 218.924 12.2266 218.596 12.4219C218.268 12.6172 218.018 12.8633 217.846 13.1602C217.674 13.4492 217.588 13.7891 217.588 14.1797C217.588 14.5781 217.678 14.9414 217.858 15.2695C218.038 15.5977 218.307 15.8594 218.666 16.0547C219.034 16.2422 219.483 16.3359 220.014 16.3359C220.678 16.3359 221.264 16.1953 221.772 15.9141C222.28 15.6328 222.682 15.2891 222.979 14.8828C223.284 14.4766 223.448 14.082 223.471 13.6992L224.397 14.7422C224.342 15.0703 224.194 15.4336 223.952 15.832C223.709 16.2305 223.385 16.6133 222.979 16.9805C222.58 17.3398 222.104 17.6406 221.549 17.8828C221.002 18.1172 220.385 18.2344 219.698 18.2344C218.838 18.2344 218.084 18.0664 217.436 17.7305C216.795 17.3945 216.295 16.9453 215.936 16.3828C215.584 15.8125 215.409 15.1758 215.409 14.4727C215.409 13.793 215.541 13.1953 215.807 12.6797C216.073 12.1562 216.455 11.7227 216.955 11.3789C217.455 11.0273 218.057 10.7617 218.76 10.582C219.463 10.4023 220.248 10.3125 221.116 10.3125H223.635ZM231.406 7.3125V18H229.238V5.32031H231.348L231.406 7.3125ZM235.367 5.25L235.355 7.26562C235.176 7.22656 235.004 7.20312 234.84 7.19531C234.684 7.17969 234.504 7.17188 234.301 7.17188C233.801 7.17188 233.359 7.25 232.977 7.40625C232.594 7.5625 232.27 7.78125 232.004 8.0625C231.738 8.34375 231.527 8.67969 231.371 9.07031C231.223 9.45312 231.125 9.875 231.078 10.3359L230.469 10.6875C230.469 9.92188 230.543 9.20312 230.691 8.53125C230.848 7.85938 231.086 7.26562 231.406 6.75C231.727 6.22656 232.133 5.82031 232.625 5.53125C233.125 5.23438 233.719 5.08594 234.406 5.08594C234.562 5.08594 234.742 5.10547 234.945 5.14453C235.148 5.17578 235.289 5.21094 235.367 5.25ZM242.611 16.4531C243.127 16.4531 243.603 16.3477 244.041 16.1367C244.478 15.9258 244.837 15.6367 245.119 15.2695C245.4 14.8945 245.56 14.4688 245.599 13.9922H247.662C247.623 14.7422 247.369 15.4414 246.9 16.0898C246.439 16.7305 245.834 17.25 245.084 17.6484C244.334 18.0391 243.509 18.2344 242.611 18.2344C241.658 18.2344 240.826 18.0664 240.115 17.7305C239.412 17.3945 238.826 16.9336 238.357 16.3477C237.896 15.7617 237.548 15.0898 237.314 14.332C237.087 13.5664 236.974 12.7578 236.974 11.9062V11.4141C236.974 10.5625 237.087 9.75781 237.314 9C237.548 8.23438 237.896 7.55859 238.357 6.97266C238.826 6.38672 239.412 5.92578 240.115 5.58984C240.826 5.25391 241.658 5.08594 242.611 5.08594C243.603 5.08594 244.47 5.28906 245.212 5.69531C245.955 6.09375 246.537 6.64062 246.959 7.33594C247.388 8.02344 247.623 8.80469 247.662 9.67969H245.599C245.56 9.15625 245.412 8.68359 245.154 8.26172C244.904 7.83984 244.56 7.50391 244.123 7.25391C243.693 6.99609 243.189 6.86719 242.611 6.86719C241.947 6.86719 241.388 7 240.935 7.26562C240.49 7.52344 240.134 7.875 239.869 8.32031C239.611 8.75781 239.423 9.24609 239.306 9.78516C239.197 10.3164 239.142 10.8594 239.142 11.4141V11.9062C239.142 12.4609 239.197 13.0078 239.306 13.5469C239.416 14.0859 239.599 14.5742 239.857 15.0117C240.123 15.4492 240.478 15.8008 240.923 16.0664C241.377 16.3242 241.939 16.4531 242.611 16.4531ZM252.667 0V18H250.499V0H252.667ZM252.152 11.1797L251.249 11.1445C251.257 10.2773 251.386 9.47656 251.636 8.74219C251.886 8 252.238 7.35547 252.691 6.80859C253.144 6.26172 253.683 5.83984 254.308 5.54297C254.941 5.23828 255.64 5.08594 256.405 5.08594C257.03 5.08594 257.593 5.17188 258.093 5.34375C258.593 5.50781 259.019 5.77344 259.37 6.14062C259.73 6.50781 260.003 6.98438 260.191 7.57031C260.378 8.14844 260.472 8.85547 260.472 9.69141V18H258.292V9.66797C258.292 9.00391 258.195 8.47266 257.999 8.07422C257.804 7.66797 257.519 7.375 257.144 7.19531C256.769 7.00781 256.308 6.91406 255.761 6.91406C255.222 6.91406 254.73 7.02734 254.284 7.25391C253.847 7.48047 253.468 7.79297 253.148 8.19141C252.835 8.58984 252.589 9.04688 252.409 9.5625C252.238 10.0703 252.152 10.6094 252.152 11.1797ZM266.473 5.32031V18H264.294V5.32031H266.473ZM264.13 1.95703C264.13 1.60547 264.235 1.30859 264.446 1.06641C264.665 0.824219 264.985 0.703125 265.407 0.703125C265.821 0.703125 266.138 0.824219 266.356 1.06641C266.583 1.30859 266.696 1.60547 266.696 1.95703C266.696 2.29297 266.583 2.58203 266.356 2.82422C266.138 3.05859 265.821 3.17578 265.407 3.17578C264.985 3.17578 264.665 3.05859 264.446 2.82422C264.235 2.58203 264.13 2.29297 264.13 1.95703ZM274.209 16.043L277.678 5.32031H279.893L275.334 18H273.881L274.209 16.043ZM271.315 5.32031L274.889 16.1016L275.135 18H273.682L269.088 5.32031H271.315ZM281.617 11.8008V11.5312C281.617 10.6172 281.75 9.76953 282.016 8.98828C282.281 8.19922 282.664 7.51562 283.164 6.9375C283.664 6.35156 284.27 5.89844 284.98 5.57812C285.691 5.25 286.488 5.08594 287.371 5.08594C288.262 5.08594 289.062 5.25 289.773 5.57812C290.492 5.89844 291.102 6.35156 291.602 6.9375C292.109 7.51562 292.496 8.19922 292.762 8.98828C293.027 9.76953 293.16 10.6172 293.16 11.5312V11.8008C293.16 12.7148 293.027 13.5625 292.762 14.3438C292.496 15.125 292.109 15.8086 291.602 16.3945C291.102 16.9727 290.496 17.4258 289.785 17.7539C289.082 18.0742 288.285 18.2344 287.395 18.2344C286.504 18.2344 285.703 18.0742 284.992 17.7539C284.281 17.4258 283.672 16.9727 283.164 16.3945C282.664 15.8086 282.281 15.125 282.016 14.3438C281.75 13.5625 281.617 12.7148 281.617 11.8008ZM283.785 11.5312V11.8008C283.785 12.4336 283.859 13.0312 284.008 13.5938C284.156 14.1484 284.379 14.6406 284.676 15.0703C284.98 15.5 285.359 15.8398 285.812 16.0898C286.266 16.332 286.793 16.4531 287.395 16.4531C287.988 16.4531 288.508 16.332 288.953 16.0898C289.406 15.8398 289.781 15.5 290.078 15.0703C290.375 14.6406 290.598 14.1484 290.746 13.5938C290.902 13.0312 290.98 12.4336 290.98 11.8008V11.5312C290.98 10.9062 290.902 10.3164 290.746 9.76172C290.598 9.19922 290.371 8.70312 290.066 8.27344C289.77 7.83594 289.395 7.49219 288.941 7.24219C288.496 6.99219 287.973 6.86719 287.371 6.86719C286.777 6.86719 286.254 6.99219 285.801 7.24219C285.355 7.49219 284.98 7.83594 284.676 8.27344C284.379 8.70312 284.156 9.19922 284.008 9.76172C283.859 10.3164 283.785 10.9062 283.785 11.5312ZM303.662 14.6367C303.662 14.3242 303.591 14.0352 303.451 13.7695C303.318 13.4961 303.041 13.25 302.619 13.0312C302.205 12.8047 301.58 12.6094 300.744 12.4453C300.041 12.2969 299.404 12.1211 298.834 11.918C298.271 11.7148 297.791 11.4688 297.392 11.1797C297.002 10.8906 296.701 10.5508 296.49 10.1602C296.279 9.76953 296.173 9.3125 296.173 8.78906C296.173 8.28906 296.283 7.81641 296.502 7.37109C296.728 6.92578 297.045 6.53125 297.451 6.1875C297.865 5.84375 298.361 5.57422 298.939 5.37891C299.517 5.18359 300.162 5.08594 300.873 5.08594C301.888 5.08594 302.755 5.26562 303.474 5.625C304.193 5.98438 304.744 6.46484 305.127 7.06641C305.509 7.66016 305.701 8.32031 305.701 9.04688H303.533C303.533 8.69531 303.427 8.35547 303.216 8.02734C303.013 7.69141 302.712 7.41406 302.314 7.19531C301.923 6.97656 301.443 6.86719 300.873 6.86719C300.271 6.86719 299.783 6.96094 299.408 7.14844C299.041 7.32812 298.771 7.55859 298.599 7.83984C298.435 8.12109 298.353 8.41797 298.353 8.73047C298.353 8.96484 298.392 9.17578 298.47 9.36328C298.556 9.54297 298.705 9.71094 298.916 9.86719C299.127 10.0156 299.423 10.1562 299.806 10.2891C300.189 10.4219 300.677 10.5547 301.271 10.6875C302.31 10.9219 303.166 11.2031 303.837 11.5312C304.509 11.8594 305.009 12.2617 305.337 12.7383C305.666 13.2148 305.83 13.793 305.83 14.4727C305.83 15.0273 305.712 15.5352 305.478 15.9961C305.252 16.457 304.92 16.8555 304.482 17.1914C304.052 17.5195 303.537 17.7773 302.935 17.9648C302.341 18.1445 301.673 18.2344 300.931 18.2344C299.814 18.2344 298.869 18.0352 298.095 17.6367C297.322 17.2383 296.736 16.7227 296.337 16.0898C295.939 15.457 295.74 14.7891 295.74 14.0859H297.92C297.951 14.6797 298.123 15.1523 298.435 15.5039C298.748 15.8477 299.13 16.0938 299.584 16.2422C300.037 16.3828 300.486 16.4531 300.931 16.4531C301.525 16.4531 302.021 16.375 302.42 16.2188C302.826 16.0625 303.134 15.8477 303.345 15.5742C303.556 15.3008 303.662 14.9883 303.662 14.6367ZM322.907 15.832V9.30469C322.907 8.80469 322.805 8.37109 322.602 8.00391C322.407 7.62891 322.11 7.33984 321.712 7.13672C321.313 6.93359 320.821 6.83203 320.235 6.83203C319.688 6.83203 319.208 6.92578 318.794 7.11328C318.388 7.30078 318.067 7.54688 317.833 7.85156C317.606 8.15625 317.493 8.48438 317.493 8.83594H315.325C315.325 8.38281 315.442 7.93359 315.677 7.48828C315.911 7.04297 316.247 6.64062 316.684 6.28125C317.13 5.91406 317.661 5.625 318.278 5.41406C318.903 5.19531 319.598 5.08594 320.364 5.08594C321.286 5.08594 322.098 5.24219 322.802 5.55469C323.513 5.86719 324.067 6.33984 324.466 6.97266C324.872 7.59766 325.075 8.38281 325.075 9.32812V15.2344C325.075 15.6562 325.11 16.1055 325.18 16.582C325.259 17.0586 325.372 17.4688 325.52 17.8125V18H323.259C323.149 17.75 323.063 17.418 323.001 17.0039C322.938 16.582 322.907 16.1914 322.907 15.832ZM323.282 10.3125L323.305 11.8359H321.114C320.497 11.8359 319.946 11.8867 319.462 11.9883C318.977 12.082 318.571 12.2266 318.243 12.4219C317.915 12.6172 317.665 12.8633 317.493 13.1602C317.321 13.4492 317.235 13.7891 317.235 14.1797C317.235 14.5781 317.325 14.9414 317.505 15.2695C317.684 15.5977 317.954 15.8594 318.313 16.0547C318.68 16.2422 319.13 16.3359 319.661 16.3359C320.325 16.3359 320.911 16.1953 321.419 15.9141C321.927 15.6328 322.329 15.2891 322.626 14.8828C322.93 14.4766 323.095 14.082 323.118 13.6992L324.044 14.7422C323.989 15.0703 323.841 15.4336 323.598 15.832C323.356 16.2305 323.032 16.6133 322.626 16.9805C322.227 17.3398 321.751 17.6406 321.196 17.8828C320.649 18.1172 320.032 18.2344 319.345 18.2344C318.485 18.2344 317.731 18.0664 317.083 17.7305C316.442 17.3945 315.942 16.9453 315.583 16.3828C315.231 15.8125 315.055 15.1758 315.055 14.4727C315.055 13.793 315.188 13.1953 315.454 12.6797C315.72 12.1562 316.102 11.7227 316.602 11.3789C317.102 11.0273 317.704 10.7617 318.407 10.582C319.11 10.4023 319.895 10.3125 320.763 10.3125H323.282ZM11.0742 41.6875C11.0742 41.2891 11.0117 40.9375 10.8867 40.6328C10.7695 40.3203 10.5586 40.0391 10.2539 39.7891C9.95703 39.5391 9.54297 39.3008 9.01172 39.0742C8.48828 38.8477 7.82422 38.6172 7.01953 38.3828C6.17578 38.1328 5.41406 37.8555 4.73438 37.5508C4.05469 37.2383 3.47266 36.8828 2.98828 36.4844C2.50391 36.0859 2.13281 35.6289 1.875 35.1133C1.61719 34.5977 1.48828 34.0078 1.48828 33.3438C1.48828 32.6797 1.625 32.0664 1.89844 31.5039C2.17188 30.9414 2.5625 30.4531 3.07031 30.0391C3.58594 29.6172 4.19922 29.2891 4.91016 29.0547C5.62109 28.8203 6.41406 28.7031 7.28906 28.7031C8.57031 28.7031 9.65625 28.9492 10.5469 29.4414C11.4453 29.9258 12.1289 30.5625 12.5977 31.3516C13.0664 32.1328 13.3008 32.9688 13.3008 33.8594H11.0508C11.0508 33.2188 10.9141 32.6523 10.6406 32.1602C10.3672 31.6602 9.95312 31.2695 9.39844 30.9883C8.84375 30.6992 8.14062 30.5547 7.28906 30.5547C6.48438 30.5547 5.82031 30.6758 5.29688 30.918C4.77344 31.1602 4.38281 31.4883 4.125 31.9023C3.875 32.3164 3.75 32.7891 3.75 33.3203C3.75 33.6797 3.82422 34.0078 3.97266 34.3047C4.12891 34.5938 4.36719 34.8633 4.6875 35.1133C5.01562 35.3633 5.42969 35.5938 5.92969 35.8047C6.4375 36.0156 7.04297 36.2188 7.74609 36.4141C8.71484 36.6875 9.55078 36.9922 10.2539 37.3281C10.957 37.6641 11.5352 38.043 11.9883 38.4648C12.4492 38.8789 12.7891 39.3516 13.0078 39.8828C13.2344 40.4062 13.3477 41 13.3477 41.6641C13.3477 42.3594 13.207 42.9883 12.9258 43.5508C12.6445 44.1133 12.2422 44.5938 11.7188 44.9922C11.1953 45.3906 10.5664 45.6992 9.83203 45.918C9.10547 46.1289 8.29297 46.2344 7.39453 46.2344C6.60547 46.2344 5.82812 46.125 5.0625 45.9062C4.30469 45.6875 3.61328 45.3594 2.98828 44.9219C2.37109 44.4844 1.875 43.9453 1.5 43.3047C1.13281 42.6562 0.949219 41.9062 0.949219 41.0547H3.19922C3.19922 41.6406 3.3125 42.1445 3.53906 42.5664C3.76562 42.9805 4.07422 43.3242 4.46484 43.5977C4.86328 43.8711 5.3125 44.0742 5.8125 44.207C6.32031 44.332 6.84766 44.3945 7.39453 44.3945C8.18359 44.3945 8.85156 44.2852 9.39844 44.0664C9.94531 43.8477 10.3594 43.5352 10.6406 43.1289C10.9297 42.7227 11.0742 42.2422 11.0742 41.6875ZM18.4586 35.8398V46H16.2789V33.3203H18.3414L18.4586 35.8398ZM18.0133 39.1797L17.0055 39.1445C17.0133 38.2773 17.1266 37.4766 17.3453 36.7422C17.5641 36 17.8883 35.3555 18.318 34.8086C18.7477 34.2617 19.2828 33.8398 19.9234 33.543C20.5641 33.2383 21.3062 33.0859 22.15 33.0859C22.7437 33.0859 23.2906 33.1719 23.7906 33.3438C24.2906 33.5078 24.7242 33.7695 25.0914 34.1289C25.4586 34.4883 25.7437 34.9492 25.9469 35.5117C26.15 36.0742 26.2516 36.7539 26.2516 37.5508V46H24.0836V37.6562C24.0836 36.9922 23.9703 36.4609 23.7437 36.0625C23.525 35.6641 23.2125 35.375 22.8062 35.1953C22.4 35.0078 21.9234 34.9141 21.3766 34.9141C20.7359 34.9141 20.2008 35.0273 19.7711 35.2539C19.3414 35.4805 18.9977 35.793 18.7398 36.1914C18.482 36.5898 18.2945 37.0469 18.1773 37.5625C18.068 38.0703 18.0133 38.6094 18.0133 39.1797ZM26.2281 37.9844L24.775 38.4297C24.7828 37.7344 24.8961 37.0664 25.1148 36.4258C25.3414 35.7852 25.6656 35.2148 26.0875 34.7148C26.5172 34.2148 27.0445 33.8203 27.6695 33.5312C28.2945 33.2344 29.0094 33.0859 29.8141 33.0859C30.4937 33.0859 31.0953 33.1758 31.6187 33.3555C32.15 33.5352 32.5953 33.8125 32.9547 34.1875C33.3219 34.5547 33.5992 35.0273 33.7867 35.6055C33.9742 36.1836 34.068 36.8711 34.068 37.668V46H31.8883V37.6445C31.8883 36.9336 31.775 36.3828 31.5484 35.9922C31.3297 35.5938 31.0172 35.3164 30.6109 35.1602C30.2125 34.9961 29.7359 34.9141 29.1812 34.9141C28.7047 34.9141 28.2828 34.9961 27.9156 35.1602C27.5484 35.3242 27.2398 35.5508 26.9898 35.8398C26.7398 36.1211 26.5484 36.4453 26.4156 36.8125C26.2906 37.1797 26.2281 37.5703 26.2281 37.9844ZM45.2258 43.832V37.3047C45.2258 36.8047 45.1242 36.3711 44.9211 36.0039C44.7258 35.6289 44.4289 35.3398 44.0305 35.1367C43.632 34.9336 43.1398 34.832 42.5539 34.832C42.007 34.832 41.5266 34.9258 41.1125 35.1133C40.7062 35.3008 40.3859 35.5469 40.1516 35.8516C39.925 36.1562 39.8117 36.4844 39.8117 36.8359H37.6437C37.6437 36.3828 37.7609 35.9336 37.9953 35.4883C38.2297 35.043 38.5656 34.6406 39.0031 34.2812C39.4484 33.9141 39.9797 33.625 40.5969 33.4141C41.2219 33.1953 41.9172 33.0859 42.6828 33.0859C43.6047 33.0859 44.4172 33.2422 45.1203 33.5547C45.8312 33.8672 46.3859 34.3398 46.7844 34.9727C47.1906 35.5977 47.3937 36.3828 47.3937 37.3281V43.2344C47.3937 43.6562 47.4289 44.1055 47.4992 44.582C47.5773 45.0586 47.6906 45.4688 47.8391 45.8125V46H45.5773C45.468 45.75 45.382 45.418 45.3195 45.0039C45.257 44.582 45.2258 44.1914 45.2258 43.832ZM45.6008 38.3125L45.6242 39.8359H43.4328C42.8156 39.8359 42.2648 39.8867 41.7805 39.9883C41.2961 40.082 40.8898 40.2266 40.5617 40.4219C40.2336 40.6172 39.9836 40.8633 39.8117 41.1602C39.6398 41.4492 39.5539 41.7891 39.5539 42.1797C39.5539 42.5781 39.6437 42.9414 39.8234 43.2695C40.0031 43.5977 40.2727 43.8594 40.632 44.0547C40.9992 44.2422 41.4484 44.3359 41.9797 44.3359C42.6437 44.3359 43.2297 44.1953 43.7375 43.9141C44.2453 43.6328 44.6477 43.2891 44.9445 42.8828C45.2492 42.4766 45.4133 42.082 45.4367 41.6992L46.3625 42.7422C46.3078 43.0703 46.1594 43.4336 45.9172 43.832C45.675 44.2305 45.3508 44.6133 44.9445 44.9805C44.5461 45.3398 44.0695 45.6406 43.5148 45.8828C42.968 46.1172 42.3508 46.2344 41.6633 46.2344C40.8039 46.2344 40.05 46.0664 39.4016 45.7305C38.7609 45.3945 38.2609 44.9453 37.9016 44.3828C37.55 43.8125 37.3742 43.1758 37.3742 42.4727C37.3742 41.793 37.507 41.1953 37.7727 40.6797C38.0383 40.1562 38.4211 39.7227 38.9211 39.3789C39.4211 39.0273 40.0227 38.7617 40.7258 38.582C41.4289 38.4023 42.2141 38.3125 43.0812 38.3125H45.6008ZM53.3719 35.3125V46H51.2039V33.3203H53.3133L53.3719 35.3125ZM57.3328 33.25L57.3211 35.2656C57.1414 35.2266 56.9695 35.2031 56.8055 35.1953C56.6492 35.1797 56.4695 35.1719 56.2664 35.1719C55.7664 35.1719 55.325 35.25 54.9422 35.4062C54.5594 35.5625 54.2352 35.7812 53.9695 36.0625C53.7039 36.3438 53.493 36.6797 53.3367 37.0703C53.1883 37.4531 53.0906 37.875 53.0438 38.3359L52.4344 38.6875C52.4344 37.9219 52.5086 37.2031 52.657 36.5312C52.8133 35.8594 53.0516 35.2656 53.3719 34.75C53.6922 34.2266 54.0984 33.8203 54.5906 33.5312C55.0906 33.2344 55.6844 33.0859 56.3719 33.0859C56.5281 33.0859 56.7078 33.1055 56.9109 33.1445C57.1141 33.1758 57.2547 33.2109 57.3328 33.25ZM65.6312 33.3203V34.9844H58.7758V33.3203H65.6312ZM61.0961 30.2383H63.2641V42.8594C63.2641 43.2891 63.3305 43.6133 63.4633 43.832C63.5961 44.0508 63.768 44.1953 63.9789 44.2656C64.1898 44.3359 64.4164 44.3711 64.6586 44.3711C64.8383 44.3711 65.0258 44.3555 65.2211 44.3242C65.4242 44.2852 65.5766 44.2539 65.6781 44.2305L65.6898 46C65.518 46.0547 65.2914 46.1055 65.0102 46.1523C64.7367 46.207 64.4047 46.2344 64.0141 46.2344C63.4828 46.2344 62.9945 46.1289 62.5492 45.918C62.1039 45.707 61.7484 45.3555 61.4828 44.8633C61.225 44.3633 61.0961 43.6914 61.0961 42.8477V30.2383ZM85.5563 40.5742H87.8063C87.6891 41.6523 87.3805 42.6172 86.8805 43.4688C86.3805 44.3203 85.6734 44.9961 84.7594 45.4961C83.8453 45.9883 82.7047 46.2344 81.3375 46.2344C80.3375 46.2344 79.4273 46.0469 78.607 45.6719C77.7945 45.2969 77.0953 44.7656 76.5094 44.0781C75.9234 43.3828 75.4703 42.5508 75.15 41.582C74.8375 40.6055 74.6813 39.5195 74.6813 38.3242V36.625C74.6813 35.4297 74.8375 34.3477 75.15 33.3789C75.4703 32.4023 75.9273 31.5664 76.5211 30.8711C77.1227 30.1758 77.8453 29.6406 78.6891 29.2656C79.5328 28.8906 80.482 28.7031 81.5367 28.7031C82.8258 28.7031 83.9156 28.9453 84.8063 29.4297C85.6969 29.9141 86.3883 30.5859 86.8805 31.4453C87.3805 32.2969 87.6891 33.2852 87.8063 34.4102H85.5563C85.4469 33.6133 85.2438 32.9297 84.9469 32.3594C84.65 31.7812 84.2281 31.3359 83.6813 31.0234C83.1344 30.7109 82.4195 30.5547 81.5367 30.5547C80.7789 30.5547 80.1109 30.6992 79.5328 30.9883C78.9625 31.2773 78.482 31.6875 78.0914 32.2188C77.7086 32.75 77.4195 33.3867 77.2242 34.1289C77.0289 34.8711 76.9313 35.6953 76.9313 36.6016V38.3242C76.9313 39.1602 77.0172 39.9453 77.1891 40.6797C77.3688 41.4141 77.6383 42.0586 77.9977 42.6133C78.357 43.168 78.8141 43.6055 79.3688 43.9258C79.9234 44.2383 80.5797 44.3945 81.3375 44.3945C82.2984 44.3945 83.0641 44.2422 83.6344 43.9375C84.2047 43.6328 84.6344 43.1953 84.9234 42.625C85.2203 42.0547 85.4313 41.3711 85.5563 40.5742ZM93.1281 28V46H90.9602V28H93.1281ZM92.6125 39.1797L91.7102 39.1445C91.718 38.2773 91.8469 37.4766 92.0969 36.7422C92.3469 36 92.6984 35.3555 93.1516 34.8086C93.6047 34.2617 94.1438 33.8398 94.7688 33.543C95.4016 33.2383 96.1008 33.0859 96.8664 33.0859C97.4914 33.0859 98.0539 33.1719 98.5539 33.3438C99.0539 33.5078 99.4797 33.7734 99.8313 34.1406C100.191 34.5078 100.464 34.9844 100.652 35.5703C100.839 36.1484 100.933 36.8555 100.933 37.6914V46H98.7531V37.668C98.7531 37.0039 98.6555 36.4727 98.4602 36.0742C98.2648 35.668 97.9797 35.375 97.6047 35.1953C97.2297 35.0078 96.7688 34.9141 96.2219 34.9141C95.6828 34.9141 95.1906 35.0273 94.7453 35.2539C94.3078 35.4805 93.9289 35.793 93.6086 36.1914C93.2961 36.5898 93.05 37.0469 92.8703 37.5625C92.6984 38.0703 92.6125 38.6094 92.6125 39.1797ZM112.055 43.832V37.3047C112.055 36.8047 111.954 36.3711 111.751 36.0039C111.555 35.6289 111.259 35.3398 110.86 35.1367C110.462 34.9336 109.97 34.832 109.384 34.832C108.837 34.832 108.356 34.9258 107.942 35.1133C107.536 35.3008 107.216 35.5469 106.981 35.8516C106.755 36.1562 106.641 36.4844 106.641 36.8359H104.473C104.473 36.3828 104.591 35.9336 104.825 35.4883C105.059 35.043 105.395 34.6406 105.833 34.2812C106.278 33.9141 106.809 33.625 107.427 33.4141C108.052 33.1953 108.747 33.0859 109.512 33.0859C110.434 33.0859 111.247 33.2422 111.95 33.5547C112.661 33.8672 113.216 34.3398 113.614 34.9727C114.02 35.5977 114.223 36.3828 114.223 37.3281V43.2344C114.223 43.6562 114.259 44.1055 114.329 44.582C114.407 45.0586 114.52 45.4688 114.669 45.8125V46H112.407C112.298 45.75 112.212 45.418 112.149 45.0039C112.087 44.582 112.055 44.1914 112.055 43.832ZM112.43 38.3125L112.454 39.8359H110.262C109.645 39.8359 109.095 39.8867 108.61 39.9883C108.126 40.082 107.72 40.2266 107.391 40.4219C107.063 40.6172 106.813 40.8633 106.641 41.1602C106.47 41.4492 106.384 41.7891 106.384 42.1797C106.384 42.5781 106.473 42.9414 106.653 43.2695C106.833 43.5977 107.102 43.8594 107.462 44.0547C107.829 44.2422 108.278 44.3359 108.809 44.3359C109.473 44.3359 110.059 44.1953 110.567 43.9141C111.075 43.6328 111.477 43.2891 111.774 42.8828C112.079 42.4766 112.243 42.082 112.266 41.6992L113.192 42.7422C113.137 43.0703 112.989 43.4336 112.747 43.832C112.505 44.2305 112.18 44.6133 111.774 44.9805C111.376 45.3398 110.899 45.6406 110.345 45.8828C109.798 46.1172 109.18 46.2344 108.493 46.2344C107.634 46.2344 106.88 46.0664 106.231 45.7305C105.591 45.3945 105.091 44.9453 104.731 44.3828C104.38 43.8125 104.204 43.1758 104.204 42.4727C104.204 41.793 104.337 41.1953 104.602 40.6797C104.868 40.1562 105.251 39.7227 105.751 39.3789C106.251 39.0273 106.852 38.7617 107.555 38.582C108.259 38.4023 109.044 38.3125 109.911 38.3125H112.43ZM120.389 33.3203V46H118.209V33.3203H120.389ZM118.045 29.957C118.045 29.6055 118.151 29.3086 118.362 29.0664C118.58 28.8242 118.901 28.7031 119.323 28.7031C119.737 28.7031 120.053 28.8242 120.272 29.0664C120.498 29.3086 120.612 29.6055 120.612 29.957C120.612 30.293 120.498 30.582 120.272 30.8242C120.053 31.0586 119.737 31.1758 119.323 31.1758C118.901 31.1758 118.58 31.0586 118.362 30.8242C118.151 30.582 118.045 30.293 118.045 29.957ZM126.438 36.0273V46H124.27V33.3203H126.32L126.438 36.0273ZM125.922 39.1797L125.02 39.1445C125.027 38.2773 125.156 37.4766 125.406 36.7422C125.656 36 126.008 35.3555 126.461 34.8086C126.914 34.2617 127.453 33.8398 128.078 33.543C128.711 33.2383 129.41 33.0859 130.176 33.0859C130.801 33.0859 131.363 33.1719 131.863 33.3438C132.363 33.5078 132.789 33.7734 133.141 34.1406C133.5 34.5078 133.773 34.9844 133.961 35.5703C134.148 36.1484 134.242 36.8555 134.242 37.6914V46H132.062V37.668C132.062 37.0039 131.965 36.4727 131.77 36.0742C131.574 35.668 131.289 35.375 130.914 35.1953C130.539 35.0078 130.078 34.9141 129.531 34.9141C128.992 34.9141 128.5 35.0273 128.055 35.2539C127.617 35.4805 127.238 35.793 126.918 36.1914C126.605 36.5898 126.359 37.0469 126.18 37.5625C126.008 38.0703 125.922 38.6094 125.922 39.1797Z" fill="url(#paint0_linear_1026_11435)"/>
<defs>
<linearGradient id="paint0_linear_1026_11435" x1="66" y1="-16.1791" x2="257.273" y2="31.9988" gradientUnits="userSpaceOnUse">
<stop stop-color="#38466E"/>
<stop offset="1" stop-color="#FF7761"/>
</linearGradient>
</defs>
</svg>
