<svg width="238" height="24" viewBox="0 0 238 24" fill="none" xmlns="http://www.w3.org/2000/svg">
<path d="M14.7385 10.2559V13.9473H3.69356V10.2559H14.7385ZM5.20235 1.67188V23H0.426956V1.67188H5.20235ZM18.0344 1.67188V23H13.2736V1.67188H18.0344ZM30.1385 19.2207V12.4238C30.1385 11.9453 30.0652 11.5352 29.9188 11.1934C29.7723 10.8516 29.5428 10.583 29.2303 10.3877C28.9178 10.1924 28.5125 10.0947 28.0145 10.0947C27.5945 10.0947 27.2283 10.168 26.9158 10.3145C26.6131 10.4609 26.3787 10.6709 26.2127 10.9443C26.0564 11.2178 25.9783 11.5547 25.9783 11.9551H21.408C21.408 11.2422 21.5691 10.5781 21.8914 9.96289C22.2137 9.34766 22.6727 8.80566 23.2684 8.33691C23.8738 7.86816 24.5965 7.50684 25.4363 7.25293C26.2762 6.98926 27.2186 6.85742 28.2635 6.85742C29.5037 6.85742 30.6072 7.06738 31.574 7.4873C32.5506 7.89746 33.3221 8.51758 33.8885 9.34766C34.4549 10.168 34.7381 11.2031 34.7381 12.4531V19.0889C34.7381 20.0459 34.7918 20.7979 34.8992 21.3447C35.0164 21.8818 35.1824 22.3506 35.3973 22.751V23H30.783C30.5682 22.541 30.407 21.9746 30.2996 21.3008C30.1922 20.6172 30.1385 19.9238 30.1385 19.2207ZM30.7098 13.332L30.7391 15.8516H28.4686C27.9607 15.8516 27.5213 15.915 27.1502 16.042C26.7889 16.1689 26.4959 16.3447 26.2713 16.5693C26.0467 16.7842 25.8807 17.0381 25.7732 17.3311C25.6756 17.6143 25.6268 17.9268 25.6268 18.2686C25.6268 18.5908 25.7049 18.8838 25.8611 19.1475C26.0174 19.4014 26.2322 19.6016 26.5057 19.748C26.7791 19.8945 27.0965 19.9678 27.4578 19.9678C28.0535 19.9678 28.5613 19.8506 28.9813 19.6162C29.4109 19.3818 29.743 19.0986 29.9773 18.7666C30.2117 18.4248 30.3289 18.1074 30.3289 17.8145L31.4275 19.7188C31.2518 20.1094 31.0369 20.5146 30.783 20.9346C30.5291 21.3447 30.2068 21.7305 29.8162 22.0918C29.4256 22.4434 28.952 22.7314 28.3953 22.9561C27.8484 23.1807 27.1893 23.293 26.4178 23.293C25.4217 23.293 24.5184 23.0928 23.7078 22.6924C22.8973 22.2822 22.2479 21.7207 21.7596 21.0078C21.2811 20.2949 21.0418 19.4746 21.0418 18.5469C21.0418 17.7168 21.1932 16.9795 21.4959 16.335C21.7986 15.6904 22.2527 15.1436 22.8582 14.6943C23.4734 14.2451 24.2449 13.9082 25.1727 13.6836C26.1004 13.4492 27.1844 13.332 28.4246 13.332H30.7098ZM50.9584 19.4404V23H38.8002V19.4404H50.9584ZM50.768 9.69922L40.7631 23H37.6576V20.3633L47.6332 7.15039H50.768V9.69922ZM49.2006 7.15039V10.71H37.9213V7.15039H49.2006ZM70.2301 18.5908C70.2301 18.2979 70.1373 18.0391 69.9518 17.8145C69.776 17.5898 69.4537 17.3848 68.985 17.1992C68.526 17.0137 67.8766 16.8281 67.0367 16.6426C66.2457 16.4766 65.5084 16.2617 64.8248 15.998C64.1412 15.7246 63.5455 15.3975 63.0377 15.0166C62.5299 14.626 62.1344 14.167 61.8512 13.6396C61.568 13.1025 61.4264 12.4922 61.4264 11.8086C61.4264 11.1445 61.568 10.5146 61.8512 9.91895C62.1441 9.32324 62.5641 8.7959 63.1109 8.33691C63.6676 7.87793 64.3414 7.5166 65.1324 7.25293C65.9332 6.98926 66.8414 6.85742 67.857 6.85742C69.2535 6.85742 70.4596 7.07715 71.4752 7.5166C72.4908 7.94629 73.2721 8.55176 73.8189 9.33301C74.3658 10.1045 74.6393 10.9883 74.6393 11.9844H70.0689C70.0689 11.5742 69.9908 11.2178 69.8346 10.915C69.6783 10.6123 69.4391 10.3779 69.1168 10.2119C68.7945 10.0361 68.3697 9.94824 67.8424 9.94824C67.4322 9.94824 67.0709 10.0215 66.7584 10.168C66.4557 10.3047 66.2164 10.4951 66.0406 10.7393C65.8746 10.9834 65.7916 11.2666 65.7916 11.5889C65.7916 11.8135 65.8404 12.0186 65.9381 12.2041C66.0455 12.3799 66.2066 12.5459 66.4215 12.7021C66.6461 12.8486 66.9342 12.9805 67.2857 13.0977C67.6471 13.2148 68.0865 13.3271 68.6041 13.4346C69.7076 13.6396 70.7135 13.9277 71.6217 14.2988C72.5396 14.6699 73.2721 15.1826 73.8189 15.8369C74.3756 16.4912 74.6539 17.3555 74.6539 18.4297C74.6539 19.1328 74.4928 19.7773 74.1705 20.3633C73.858 20.9492 73.4039 21.4619 72.8082 21.9014C72.2125 22.3408 71.4996 22.6826 70.6695 22.9268C69.8394 23.1709 68.9019 23.293 67.857 23.293C66.3629 23.293 65.0982 23.0244 64.0631 22.4873C63.0279 21.9502 62.2467 21.2764 61.7193 20.4658C61.2018 19.6455 60.943 18.8057 60.943 17.9463H65.235C65.2545 18.4736 65.3863 18.9033 65.6305 19.2354C65.8844 19.5674 66.2115 19.8115 66.6119 19.9678C67.0123 20.1143 67.4615 20.1875 67.9596 20.1875C68.4576 20.1875 68.8727 20.1191 69.2047 19.9824C69.5367 19.8457 69.7906 19.6602 69.9664 19.4258C70.1422 19.1816 70.2301 18.9033 70.2301 18.5908ZM82.4221 7.15039V23H77.8371V7.15039H82.4221ZM77.5588 3.04883C77.5588 2.38477 77.7932 1.84277 78.2619 1.42285C78.7307 0.993164 79.3459 0.77832 80.1076 0.77832C80.8693 0.77832 81.4846 0.993164 81.9533 1.42285C82.4318 1.84277 82.6711 2.38477 82.6711 3.04883C82.6711 3.70313 82.4318 4.24512 81.9533 4.6748C81.4846 5.09473 80.8693 5.30469 80.1076 5.30469C79.3459 5.30469 78.7307 5.09473 78.2619 4.6748C77.7932 4.24512 77.5588 3.70313 77.5588 3.04883ZM95.3465 19.4551V0.5H99.9461V23H95.8152L95.3465 19.4551ZM85.4734 15.2656V14.958C85.4734 13.7568 85.6053 12.6631 85.869 11.6768C86.1424 10.6807 86.5379 9.82617 87.0555 9.11328C87.5828 8.39062 88.2322 7.83398 89.0037 7.44336C89.7752 7.05273 90.659 6.85742 91.6551 6.85742C92.5731 6.85742 93.3738 7.0625 94.0574 7.47266C94.741 7.87305 95.3221 8.43945 95.8006 9.17188C96.2889 9.89453 96.6844 10.749 96.9871 11.7354C97.2899 12.7119 97.5193 13.7715 97.6756 14.9141V15.4414C97.5291 16.5352 97.2996 17.5557 96.9871 18.5029C96.6844 19.4502 96.2889 20.2852 95.8006 21.0078C95.3221 21.7207 94.7361 22.2822 94.0428 22.6924C93.3592 23.0928 92.5535 23.293 91.6258 23.293C90.6297 23.293 89.7459 23.0928 88.9744 22.6924C88.2127 22.292 87.5731 21.7305 87.0555 21.0078C86.5379 20.2852 86.1424 19.4355 85.869 18.459C85.6053 17.4824 85.4734 16.418 85.4734 15.2656ZM90.0438 14.958V15.2656C90.0438 15.8906 90.0877 16.4717 90.1756 17.0088C90.2733 17.5459 90.4295 18.0195 90.6443 18.4297C90.8592 18.8398 91.1424 19.1621 91.494 19.3965C91.8455 19.6211 92.2752 19.7334 92.783 19.7334C93.4666 19.7334 94.0281 19.5771 94.4676 19.2646C94.907 18.9424 95.2391 18.498 95.4637 17.9316C95.6883 17.3652 95.8055 16.7061 95.8152 15.9541V14.416C95.8152 13.791 95.7518 13.2295 95.6248 12.7314C95.4979 12.2334 95.3074 11.8135 95.0535 11.4717C94.8094 11.1299 94.5018 10.8711 94.1307 10.6953C93.7596 10.5098 93.3201 10.417 92.8123 10.417C92.3143 10.417 91.8895 10.5342 91.5379 10.7686C91.1863 10.9932 90.8983 11.3105 90.6736 11.7207C90.4588 12.1309 90.2977 12.6143 90.1902 13.1709C90.0926 13.7178 90.0438 14.3135 90.0438 14.958ZM102.734 15.2363V14.9287C102.734 13.7666 102.9 12.6973 103.232 11.7207C103.564 10.7344 104.052 9.87988 104.697 9.15723C105.341 8.43457 106.132 7.87305 107.07 7.47266C108.007 7.0625 109.081 6.85742 110.292 6.85742C111.523 6.85742 112.607 7.0625 113.544 7.47266C114.492 7.87305 115.288 8.43457 115.932 9.15723C116.577 9.87988 117.065 10.7344 117.397 11.7207C117.729 12.6973 117.895 13.7666 117.895 14.9287V15.2363C117.895 16.3887 117.729 17.458 117.397 18.4443C117.065 19.4209 116.577 20.2754 115.932 21.0078C115.288 21.7305 114.496 22.292 113.559 22.6924C112.621 23.0928 111.542 23.293 110.322 23.293C109.111 23.293 108.032 23.0928 107.084 22.6924C106.137 22.292 105.341 21.7305 104.697 21.0078C104.052 20.2754 103.564 19.4209 103.232 18.4443C102.9 17.458 102.734 16.3887 102.734 15.2363ZM107.319 14.9287V15.2363C107.319 15.8613 107.368 16.4473 107.465 16.9941C107.573 17.541 107.744 18.0195 107.978 18.4297C108.212 18.8398 108.52 19.1621 108.901 19.3965C109.291 19.6211 109.765 19.7334 110.322 19.7334C110.878 19.7334 111.347 19.6211 111.728 19.3965C112.109 19.1621 112.416 18.8398 112.651 18.4297C112.885 18.0195 113.051 17.541 113.149 16.9941C113.256 16.4473 113.31 15.8613 113.31 15.2363V14.9287C113.31 14.3135 113.256 13.7373 113.149 13.2002C113.051 12.6533 112.885 12.1699 112.651 11.75C112.416 11.3301 112.104 11.0029 111.713 10.7686C111.332 10.5342 110.859 10.417 110.292 10.417C109.746 10.417 109.282 10.5342 108.901 10.7686C108.52 11.0029 108.212 11.3301 107.978 11.75C107.744 12.1699 107.573 12.6533 107.465 13.2002C107.368 13.7373 107.319 14.3135 107.319 14.9287ZM133.387 7.15039V23H128.802V7.15039H133.387ZM128.524 3.04883C128.524 2.38477 128.758 1.84277 129.227 1.42285C129.696 0.993164 130.311 0.77832 131.073 0.77832C131.835 0.77832 132.45 0.993164 132.919 1.42285C133.397 1.84277 133.636 2.38477 133.636 3.04883C133.636 3.70313 133.397 4.24512 132.919 4.6748C132.45 5.09473 131.835 5.30469 131.073 5.30469C130.311 5.30469 129.696 5.09473 129.227 4.6748C128.758 4.24512 128.524 3.70313 128.524 3.04883ZM141.566 10.5342V23H136.981V7.15039H141.287L141.566 10.5342ZM140.965 14.5186L139.822 14.5479C139.822 13.3564 139.969 12.2871 140.262 11.3398C140.555 10.3926 140.97 9.58691 141.507 8.92285C142.054 8.24902 142.703 7.73633 143.455 7.38477C144.217 7.0332 145.057 6.85742 145.975 6.85742C146.717 6.85742 147.396 6.96484 148.011 7.17969C148.626 7.39453 149.154 7.74121 149.593 8.21973C150.042 8.68848 150.384 9.31348 150.618 10.0947C150.853 10.8662 150.97 11.8184 150.97 12.9512V23H146.37V12.9365C146.37 12.2725 146.278 11.7598 146.092 11.3984C145.906 11.0371 145.633 10.7832 145.272 10.6367C144.92 10.4902 144.49 10.417 143.983 10.417C143.446 10.417 142.987 10.5244 142.606 10.7393C142.225 10.9443 141.912 11.2324 141.668 11.6035C141.424 11.9746 141.243 12.4092 141.126 12.9072C141.019 13.4053 140.965 13.9424 140.965 14.5186ZM159.91 19.7627L163.221 7.15039H168.025L162.766 23H159.881L159.91 19.7627ZM157.771 7.15039L161.067 19.7773L161.096 23H158.211L152.952 7.15039H157.771ZM174.929 7.15039V23H170.344V7.15039H174.929ZM170.066 3.04883C170.066 2.38477 170.3 1.84277 170.769 1.42285C171.238 0.993164 171.853 0.77832 172.615 0.77832C173.376 0.77832 173.992 0.993164 174.46 1.42285C174.939 1.84277 175.178 2.38477 175.178 3.04883C175.178 3.70313 174.939 4.24512 174.46 4.6748C173.992 5.09473 173.376 5.30469 172.615 5.30469C171.853 5.30469 171.238 5.09473 170.769 4.6748C170.3 4.24512 170.066 3.70313 170.066 3.04883ZM186.682 7.15039V10.3584H177.277V7.15039H186.682ZM179.431 3.22461H184.016V18.0342C184.016 18.4736 184.069 18.8105 184.177 19.0449C184.284 19.2793 184.46 19.4453 184.704 19.543C184.948 19.6309 185.261 19.6748 185.642 19.6748C185.915 19.6748 186.149 19.665 186.345 19.6455C186.54 19.626 186.721 19.6016 186.887 19.5723V22.8828C186.496 23.0098 186.081 23.1074 185.642 23.1758C185.202 23.2539 184.724 23.293 184.206 23.293C183.22 23.293 182.365 23.1318 181.643 22.8096C180.93 22.4873 180.383 21.9795 180.002 21.2861C179.621 20.583 179.431 19.6699 179.431 18.5469V3.22461ZM197.672 19.2207V12.4238C197.672 11.9453 197.599 11.5352 197.453 11.1934C197.306 10.8516 197.077 10.583 196.764 10.3877C196.452 10.1924 196.047 10.0947 195.548 10.0947C195.129 10.0947 194.762 10.168 194.45 10.3145C194.147 10.4609 193.913 10.6709 193.747 10.9443C193.59 11.2178 193.512 11.5547 193.512 11.9551H188.942C188.942 11.2422 189.103 10.5781 189.425 9.96289C189.748 9.34766 190.207 8.80566 190.802 8.33691C191.408 7.86816 192.13 7.50684 192.97 7.25293C193.81 6.98926 194.753 6.85742 195.797 6.85742C197.038 6.85742 198.141 7.06738 199.108 7.4873C200.085 7.89746 200.856 8.51758 201.422 9.34766C201.989 10.168 202.272 11.2031 202.272 12.4531V19.0889C202.272 20.0459 202.326 20.7979 202.433 21.3447C202.55 21.8818 202.716 22.3506 202.931 22.751V23H198.317C198.102 22.541 197.941 21.9746 197.834 21.3008C197.726 20.6172 197.672 19.9238 197.672 19.2207ZM198.244 13.332L198.273 15.8516H196.003C195.495 15.8516 195.055 15.915 194.684 16.042C194.323 16.1689 194.03 16.3447 193.805 16.5693C193.581 16.7842 193.415 17.0381 193.307 17.3311C193.21 17.6143 193.161 17.9268 193.161 18.2686C193.161 18.5908 193.239 18.8838 193.395 19.1475C193.551 19.4014 193.766 19.6016 194.04 19.748C194.313 19.8945 194.63 19.9678 194.992 19.9678C195.588 19.9678 196.095 19.8506 196.515 19.6162C196.945 19.3818 197.277 19.0986 197.511 18.7666C197.746 18.4248 197.863 18.1074 197.863 17.8145L198.962 19.7188C198.786 20.1094 198.571 20.5146 198.317 20.9346C198.063 21.3447 197.741 21.7305 197.35 22.0918C196.96 22.4434 196.486 22.7314 195.929 22.9561C195.382 23.1807 194.723 23.293 193.952 23.293C192.956 23.293 192.052 23.0928 191.242 22.6924C190.431 22.2822 189.782 21.7207 189.294 21.0078C188.815 20.2949 188.576 19.4746 188.576 18.5469C188.576 17.7168 188.727 16.9795 189.03 16.335C189.333 15.6904 189.787 15.1436 190.392 14.6943C191.007 14.2451 191.779 13.9082 192.707 13.6836C193.634 13.4492 194.718 13.332 195.959 13.332H198.244ZM214.904 19.4551V0.5H219.503V23H215.372L214.904 19.4551ZM205.03 15.2656V14.958C205.03 13.7568 205.162 12.6631 205.426 11.6768C205.699 10.6807 206.095 9.82617 206.612 9.11328C207.14 8.39062 207.789 7.83398 208.561 7.44336C209.332 7.05273 210.216 6.85742 211.212 6.85742C212.13 6.85742 212.931 7.0625 213.614 7.47266C214.298 7.87305 214.879 8.43945 215.358 9.17188C215.846 9.89453 216.241 10.749 216.544 11.7354C216.847 12.7119 217.076 13.7715 217.233 14.9141V15.4414C217.086 16.5352 216.857 17.5557 216.544 18.5029C216.241 19.4502 215.846 20.2852 215.358 21.0078C214.879 21.7207 214.293 22.2822 213.6 22.6924C212.916 23.0928 212.111 23.293 211.183 23.293C210.187 23.293 209.303 23.0928 208.531 22.6924C207.77 22.292 207.13 21.7305 206.612 21.0078C206.095 20.2852 205.699 19.4355 205.426 18.459C205.162 17.4824 205.03 16.418 205.03 15.2656ZM209.601 14.958V15.2656C209.601 15.8906 209.645 16.4717 209.733 17.0088C209.83 17.5459 209.987 18.0195 210.201 18.4297C210.416 18.8398 210.699 19.1621 211.051 19.3965C211.403 19.6211 211.832 19.7334 212.34 19.7334C213.024 19.7334 213.585 19.5771 214.025 19.2646C214.464 18.9424 214.796 18.498 215.021 17.9316C215.245 17.3652 215.362 16.7061 215.372 15.9541V14.416C215.372 13.791 215.309 13.2295 215.182 12.7314C215.055 12.2334 214.864 11.8135 214.611 11.4717C214.366 11.1299 214.059 10.8711 213.688 10.6953C213.317 10.5098 212.877 10.417 212.369 10.417C211.871 10.417 211.446 10.5342 211.095 10.7686C210.743 10.9932 210.455 11.3105 210.231 11.7207C210.016 12.1309 209.855 12.6143 209.747 13.1709C209.65 13.7178 209.601 14.3135 209.601 14.958ZM222.291 15.2363V14.9287C222.291 13.7666 222.457 12.6973 222.789 11.7207C223.121 10.7344 223.609 9.87988 224.254 9.15723C224.898 8.43457 225.689 7.87305 226.627 7.47266C227.564 7.0625 228.638 6.85742 229.849 6.85742C231.08 6.85742 232.164 7.0625 233.101 7.47266C234.049 7.87305 234.845 8.43457 235.489 9.15723C236.134 9.87988 236.622 10.7344 236.954 11.7207C237.286 12.6973 237.452 13.7666 237.452 14.9287V15.2363C237.452 16.3887 237.286 17.458 236.954 18.4443C236.622 19.4209 236.134 20.2754 235.489 21.0078C234.845 21.7305 234.054 22.292 233.116 22.6924C232.179 23.0928 231.099 23.293 229.879 23.293C228.668 23.293 227.589 23.0928 226.641 22.6924C225.694 22.292 224.898 21.7305 224.254 21.0078C223.609 20.2754 223.121 19.4209 222.789 18.4443C222.457 17.458 222.291 16.3887 222.291 15.2363ZM226.876 14.9287V15.2363C226.876 15.8613 226.925 16.4473 227.022 16.9941C227.13 17.541 227.301 18.0195 227.535 18.4297C227.769 18.8398 228.077 19.1621 228.458 19.3965C228.848 19.6211 229.322 19.7334 229.879 19.7334C230.435 19.7334 230.904 19.6211 231.285 19.3965C231.666 19.1621 231.973 18.8398 232.208 18.4297C232.442 18.0195 232.608 17.541 232.706 16.9941C232.813 16.4473 232.867 15.8613 232.867 15.2363V14.9287C232.867 14.3135 232.813 13.7373 232.706 13.2002C232.608 12.6533 232.442 12.1699 232.208 11.75C231.973 11.3301 231.661 11.0029 231.27 10.7686C230.889 10.5342 230.416 10.417 229.849 10.417C229.303 10.417 228.839 10.5342 228.458 10.7686C228.077 11.0029 227.769 11.3301 227.535 11.75C227.301 12.1699 227.13 12.6533 227.022 13.2002C226.925 13.7373 226.876 14.3135 226.876 14.9287Z" fill="url(#paint0_linear_262_5257)"/>
<defs>
<linearGradient id="paint0_linear_262_5257" x1="-17.5769" y1="-12.5224" x2="176.599" y2="80.3688" gradientUnits="userSpaceOnUse">
<stop stop-color="#38466E"/>
<stop offset="1" stop-color="#FF7761"/>
</linearGradient>
</defs>
</svg>
